<?xml version="1.0" encoding="UTF-8" standalone="no"?>
<!-- Created with Inkscape (http://www.inkscape.org/) -->

<svg
   xmlns:dc="http://purl.org/dc/elements/1.1/"
   xmlns:cc="http://creativecommons.org/ns#"
   xmlns:rdf="http://www.w3.org/1999/02/22-rdf-syntax-ns#"
   xmlns:svg="http://www.w3.org/2000/svg"
   xmlns="http://www.w3.org/2000/svg"
   xmlns:sodipodi="http://sodipodi.sourceforge.net/DTD/sodipodi-0.dtd"
   xmlns:inkscape="http://www.inkscape.org/namespaces/inkscape"
   width="321.73334mm"
   height="14.809941mm"
   viewBox="0 0 1140 52.47617"
   id="svg7055"
   version="1.1"
   inkscape:version="0.91 r13725"
   sodipodi:docname="logos.svg">
  <defs
     id="defs7057" />
  <sodipodi:namedview
     id="base"
     pagecolor="#ffffff"
     bordercolor="#666666"
     borderopacity="1.0"
     inkscape:pageopacity="0.0"
     inkscape:pageshadow="2"
     inkscape:zoom="1.4"
     inkscape:cx="371.77177"
     inkscape:cy="-170.44564"
     inkscape:document-units="px"
     inkscape:current-layer="layer1"
     showgrid="false"
     inkscape:window-width="3200"
     inkscape:window-height="1764"
     inkscape:window-x="0"
     inkscape:window-y="36"
     inkscape:window-maximized="1"
     fit-margin-top="0"
     fit-margin-left="0"
     fit-margin-right="0"
     fit-margin-bottom="0" />
  <metadata
     id="metadata7060">
    <rdf:RDF>
      <cc:Work
         rdf:about="">
        <dc:format>image/svg+xml</dc:format>
        <dc:type
           rdf:resource="http://purl.org/dc/dcmitype/StillImage" />
        <dc:title></dc:title>
      </cc:Work>
    </rdf:RDF>
  </metadata>
  <g
     inkscape:label="Layer 1"
     inkscape:groupmode="layer"
     id="layer1"
     transform="translate(266.88157,-479.52461)">
    <g
       id="g7714"
       style="opacity:0.5;fill:#ffffff;fill-opacity:1">
      <path
         id="path4347"
         d="m -124.92707,500.0606 c -2.3781,-0.63258 -4.7795,-0.63258 -7.1458,0 -3.5495,0.94886 -5.9274,3.1863 -6.6889,6.75918 -0.4217,1.94458 -0.5037,4.01802 -0.3865,6.02117 0.2459,4.56859 3.0808,7.82518 7.462,8.84433 l 0.1874,0 c 0.164,0 0.3397,0.11714 0.5038,0.11714 l 0.1757,0 c 0.2108,0 0.4685,0.11714 0.7379,0.11714 0.8552,0.11715 1.9563,0.15229 2.8701,0 l 0.1405,0 c 4.5335,-0.23428 7.9658,-3.09258 8.9732,-7.47375 0.5506,-2.40144 0.5506,-4.81459 0,-7.22775 -0.8434,-3.78373 -3.1394,-6.2086 -6.8997,-7.21604 z m 0.2928,13.21378 c 0,0.14057 0,0.28114 -0.1171,0.42171 -0.4569,2.01487 -1.9212,3.10431 -3.8775,3.0223 -2.0969,-0.11714 -3.5377,-1.32372 -3.7486,-3.42058 -0.1405,-1.53458 -0.164,-3.09259 0,-4.62717 0.1992,-2.42487 1.7103,-3.74859 3.9829,-3.70173 1.8626,0 3.198,1.08943 3.6666,2.89344 0.4452,1.7923 0.1289,5.00202 0.1171,5.41203 z m 9.1138,-23.90898 0,32.23788 6.8411,0 0,-9.86348 6.3024,9.87519 7.251199,0 -6.841199,-10.73034 6.841199,-10.68348 -7.251199,0 -6.3024,9.85176 0,-21.51925 z m -72.8281,22.22211 c 0,-1.49943 0,-2.99887 -0.2226,-4.47488 -0.5857,-4.02973 -3.034,-6.58346 -7.0051,-7.25118 -1.5112,-0.25771 -3.1161,-0.22257 -4.6623,-0.11714 -4.2172,0.39829 -7.4153,3.0223 -8.0713,6.98175 -0.3982,2.40144 -0.4451,4.94345 -0.1288,7.34489 0.4802,3.61973 2.2491,5.92746 5.2949,7.04033 1.394,0.42171 8.2117,2.20229 14.2095,-0.82001 l -0.246,-0.87858 c -0.2812,-1.18315 -0.6092,-2.34287 -0.9255,-3.5143 l 0,-0.11714 c 0,0 -0.1288,0 -0.3513,0.11714 -0.2578,0.11714 -0.5272,0.15229 -0.785,0.23429 l -0.1405,0 c -0.9137,0.25771 -2.214,0.574 -3.5846,0.74972 -1.148,0.11714 -2.3194,0.11714 -3.4909,0 -1.9094,-0.31629 -3.362,-1.33544 -3.2917,-3.74859 l 13.4129,0 0,-0.23429 z m -6.15,-2.9403 -7.3918,0 c 0,-1.46429 0.2226,-2.83487 1.5229,-3.66659 1.3823,-0.87857 2.9169,-0.91372 4.346,-0.12886 1.4526,0.79658 1.558,2.23744 1.5229,3.79545 z m -14.9007,11.39806 c -0.2928,-1.07772 -0.6326,-2.15544 -0.9606,-3.1863 l -0.3045,-1.14801 c 0,0 -8.0009,3.8423 -9.2427,-3.45573 -0.1171,-1.20658 -0.1171,-2.4483 0.1172,-3.63145 0.3163,-2.23744 1.6751,-3.44401 3.854,-3.64316 0.738,-0.11714 1.4995,0 2.2257,0.11715 0.9957,0.164 1.9563,0.46857 3.0458,0.738 0.3748,-1.14801 0.7614,-2.29601 1.1246,-3.44402 0.1171,-0.17571 0.1171,-0.33972 0.1405,-0.46857 l 0.1757,-0.69115 c 0,-0.11714 -0.1523,-0.18743 -0.3045,-0.28114 -0.1875,-0.15229 -0.4921,-0.28115 -0.9841,-0.45686 -0.1991,-0.11715 -0.3865,-0.14057 -0.5857,-0.19915 -0.1757,-0.11714 -0.2929,-0.11714 -0.2929,-0.11714 -2.0968,-0.59743 -4.2523,-0.64429 -6.4428,-0.42172 -4.6155,0.49201 -7.7549,3.20973 -8.6218,7.70804 -0.4569,2.3663 -0.4334,4.76774 0.1172,7.13404 0.7848,3.54944 2.9403,5.85717 6.4428,6.87632 2.2843,0.66772 4.6272,0.70286 6.9584,0.33972 0.984,-0.15229 2.3897,-0.65601 3.3972,-1.01915 l 0.3865,-0.14057 -0.1874,-0.60915 z m -25.8653,-17.33723 c -0.1171,-0.11715 -0.164,-0.17572 -0.2225,-0.246 l -0.1641,-0.164 c -1.5346,-1.56972 -2.1203,-1.9563 -3.3268,-2.30773 -4.6389,-1.37058 -9.1607,1.066 -10.5898,5.72832 -0.8785,2.87001 -0.8902,5.82203 -0.3748,8.72718 1.1128,6.29061 5.7868,8.39919 10.7771,7.35661 1.5346,-0.31628 2.6709,-1.27686 3.7252,-2.60058 0,0 0.1172,-0.11715 0.2109,-0.33972 l 0,2.76458 6.3843,0 0,-21.65982 -6.3843,0 0,2.74116 z m -0.5623,10.88262 c -0.2108,2.00316 -1.8274,3.19802 -3.7485,3.12773 -1.9563,-0.11714 -3.2566,-1.12457 -3.6784,-3.01058 -0.5037,-2.67087 0.1172,-5.85717 0.1406,-6.11489 0.5154,-1.79229 1.8157,-2.68259 3.7369,-2.63573 1.886,0 3.3269,1.15972 3.5494,3.10431 0.1875,1.82743 0.1875,3.71344 0,5.52916 z m -15.0412,-13.63549 -4.8849,0 0,-3.24488 c 0.3515,-3.06915 5.4238,-2.48344 5.4238,-2.48344 l 0,-5.24802 c -0.1757,0 -10.0743,-2.38973 -12.0423,5.1426 -0.3046,0.93714 -0.2929,5.25973 -0.2812,5.79859 l -4.2289,0 0,5.77518 4.4866,0 0,15.69722 6.5366,0 0,-15.69722 5.002,0 0.5623,-5.77518 -0.5623,0 z m 102.6294,0.10543 c -2.378,-0.63258 -4.7794,-0.63258 -7.1457,0 -3.5495,0.94886 -5.9275,3.1863 -6.7006,6.75918 -0.4218,1.94458 -0.5037,4.01802 -0.3866,6.02117 0.2577,4.56859 3.0809,7.82518 7.4737,8.84433 l 0.1875,0 c 0.164,0 0.3397,0.11714 0.5037,0.11714 l 0.1757,0 c 0.2109,0 0.4686,0.11714 0.738,0.11714 0.8552,0.11715 1.9563,0.15229 2.87,0 l 0.1406,0 c 4.5334,-0.23428 7.9657,-3.09258 8.9732,-7.47375 0.5506,-2.40144 0.5506,-4.81459 0,-7.22775 -0.8552,-3.77202 -3.1395,-6.2086 -6.8998,-7.21604 z m 0.2811,13.21378 c 0,0.14057 0,0.28114 -0.1171,0.42171 -0.4568,2.01487 -1.9211,3.10431 -3.8774,3.0223 -2.0969,-0.11714 -3.5378,-1.32372 -3.7486,-3.42058 a 24.424409,24.424409 0 0 1 0,-4.62717 c 0.1991,-2.42487 1.7103,-3.74859 3.9829,-3.70173 1.8625,0 3.198,1.08943 3.6666,2.89344 0.4568,1.7923 0.1405,5.00202 0.1171,5.41203 z m -24.5181,-13.61207 c -2.5771,-0.28115 -4.8145,0.50372 -6.7006,2.7763 l 0,-13.92835 -6.8412,0.83171 0,32.22616 6.8412,0 0,-1.90943 c 0.9255,0.656 1.8157,1.45258 2.87,1.82744 3.9829,1.42915 9.231,0.26942 11.0701,-5.06061 1.1832,-3.42058 1.148,-6.92317 0.2577,-10.3789 -0.9723,-3.84231 -3.5377,-5.9626 -7.4972,-6.38432 z m 1.0309,13.9635 c -0.3046,2.12029 -1.9914,3.23316 -3.9946,3.08087 -0.5037,0 -0.9606,-0.14057 -1.3588,-0.30457 -1.6166,-0.92544 -2.1086,-2.48344 -2.2492,-3.46745 -0.1172,-1.51115 -0.2343,-4.67402 0.5037,-6.16174 0.6209,-1.14801 1.722,-1.76887 3.1629,-1.81573 2.0617,-0.11714 3.6197,0.94887 3.9243,3.04573 0.2577,1.83915 0.2694,3.78373 0,5.62289 z"
         inkscape:connector-curvature="0"
         style="fill:#ffffff;fill-opacity:1" />
      <path
         id="path4337"
         d="m -22.804571,521.99951 c 4.8399,0 8.4871,-1.58356 11.3421,-4.55894 2.9390002,-2.94231 3.8515002,-7.06156 3.8515002,-10.39398 0,-1.03477 -0.079,-1.98359 -0.2381,-2.78033 l -14.9555002,0 0,4.44324 10.6313,0 c -0.3173,2.49931 -1.1538,4.32421 -2.418,5.5937 -1.5498,1.54389 -3.9671,3.25308 -8.2133,3.25308 -6.5449,0 -11.6635,-5.27633 -11.6635,-11.82216 0,-6.54583 5.1186,-11.82547 11.6635,-11.82547 3.5281,0 6.1111,1.39181 8.012,3.17704 l 3.1351,-3.13407 c -2.66,-2.53568 -6.1882,-4.4829 -11.1471,-4.4829 -8.9675,0 -16.5041,7.29629 -16.5041,16.2654 0,8.9658 7.5366,16.26539 16.5041,16.26539 z m 27.2967002,0 c 5.7887998,0 10.5096998,-4.44323 10.5096998,-10.47663 0,-6.06647 -4.7209,-10.47002 -10.5096998,-10.47002 -5.7986,0 -10.5196,4.40355 -10.5196,10.47002 0,6.0334 4.721,10.47663 10.5196,10.47663 z m 0,-4.12586 c -3.177,0 -5.9176,-2.61832 -5.9176,-6.35077 0,-3.76551 2.7406,-6.34086 5.9176,-6.34086 3.1705,0 5.9077998,2.57535 5.9077998,6.34086 0,3.73245 -2.7372998,6.35077 -5.9077998,6.35077 z m 22.9269998,4.12586 c 5.792,0 10.513,-4.44323 10.513,-10.47663 0,-6.06647 -4.721,-10.47002 -10.513,-10.47002 -5.7954,0 -10.5163,4.40355 -10.5163,10.47002 0,6.0334 4.7209,10.47663 10.5163,10.47663 z m 0,-4.12586 c -3.1738,0 -5.9144,-2.61832 -5.9144,-6.35077 0,-3.76551 2.7406,-6.34086 5.9144,-6.34086 3.1737,0 5.9111,2.57535 5.9111,6.34086 0,3.73245 -2.7374,6.35077 -5.9111,6.35077 z m 22.5335,13.52805 c 5.392,0 9.9609,-3.17043 9.9609,-10.90971 l 0,-18.80439 -4.3672,0 0,1.70589 -0.1587,0 c -1.0347,-1.22983 -3.0183,-2.34063 -5.511,-2.34063 -5.24,0 -10.037,4.60191 -10.037,10.513 0,5.87471 4.797,10.43365 10.037,10.43365 2.4927,0 4.4763,-1.11081 5.511,-2.3803 l 0.1587,0 0,1.50753 c 0,4.01014 -2.1423,6.14911 -5.5937,6.14911 -2.8134,0 -4.5622,-2.01995 -5.2796,-3.73245 l -4.0036,1.66952 c 1.1538,2.78033 4.2052,6.18878 9.2832,6.18878 z m 0.3141,-13.52805 c -3.1705,0 -5.8318,-2.65469 -5.8318,-6.30779 0,-3.68947 2.6613,-6.38384 5.8318,-6.38384 3.1373,0 5.597,2.69437 5.597,6.38384 0,3.6531 -2.4597,6.30779 -5.597,6.30779 z m 17.4191,-27.29412 -4.6019,0 0,30.78523 4.6019,0 z m 12.6156,31.41998 c 4.797,0 7.5773,-2.9324 8.7278,-4.64158 l -3.5737,-2.377 c -1.1869,1.73894 -2.8134,2.89272 -5.1541,2.89272 -2.3406,0 -4.0101,-1.07113 -5.0779,-3.17373 l 14.0041,-5.79537 -0.4761,-1.18685 c -0.8728,-2.34063 -3.5341,-6.66484 -8.9658,-6.66484 -5.3953,0 -9.8782,4.24818 -9.8782,10.47002 0,5.87471 4.4432,10.47663 10.3939,10.47663 z m -5.8317,-10.7907 c -0.119,-4.04321 3.1341,-6.10944 5.4747,-6.10944 1.8249,0 3.3721,0.91245 3.8911,2.22162 z m 0,0"
         inkscape:connector-curvature="0"
         style="fill:#ffffff;fill-opacity:1" />
      <path
         id="path4327"
         d="m 186.97163,504.88706 -19.9251,0 0,19.92517 19.9251,0 z m -22.0018,0 -19.9251,0 0,19.92517 19.9251,0 z m 22.0018,-22.00781 -19.9251,0 0,19.92608 19.9251,0 z m -21.9987,0 -19.9282,0 0,19.92608 19.9282,0 z m 172.21362,18.97066 0,8.50143 c 0,1.08803 0.18989,1.86864 0.56964,2.3147 0.38277,0.44004 1.00967,0.66307 1.82645,0.66307 0.22605,0 0.51237,-0.0482 0.85295,-0.14467 0.34359,-0.0934 0.6269,-0.22001 0.85596,-0.37372 l 0.17179,-0.11755 0,3.48713 -0.0573,0.0332 c -0.24715,0.14769 -0.68417,0.28332 -1.31107,0.42195 -0.6269,0.13262 -1.23571,0.19893 -1.82343,0.19893 -3.55344,0 -5.34373,-1.92893 -5.34373,-5.73554 l 0,-9.24888 -6.35941,0 0,14.55342 -4.28884,0 0,-14.55342 -2.98682,0 0,-3.45398 2.98682,0 0,-2.49253 c 0,-1.25199 0.27728,-2.38343 0.8228,-3.36356 0.54553,-0.98044 1.32614,-1.75201 2.32074,-2.2924 0.99159,-0.5395 2.12784,-0.81196 3.37863,-0.81196 0.99159,0 1.79329,0.10669 2.38101,0.31827 l 0.0753,0.0271 0,3.63783 -0.15974,-0.0705 c -0.62991,-0.2815 -1.25681,-0.42436 -1.86261,-0.42436 -0.84089,0 -1.50396,0.27035 -1.9651,0.80261 -0.46414,0.5395 -0.70224,1.34724 -0.70224,2.40272 l 0,2.26648 6.35941,0 0,-4.06942 0.0784,-0.0241 4.02964,-1.2327 0.15069,-0.0443 0,5.37084 4.27679,0 0,3.45398 z m -27.46907,11.4792 c 1.56424,0 2.76379,-0.50634 3.55947,-1.50094 0.80171,-1.00666 1.20859,-2.51061 1.20859,-4.46365 0,-1.93194 -0.43099,-3.4148 -1.28394,-4.40548 -0.84993,-0.99158 -2.03139,-1.4919 -3.51727,-1.4919 -1.5341,0 -2.74871,0.52443 -3.61372,1.55821 -0.87102,1.03891 -1.31407,2.53382 -1.31407,4.44165 0,1.85056 0.44305,3.3093 1.31106,4.33103 0.86802,1.0157 2.09469,1.53108 3.64988,1.53108 m 0.1929,-15.36749 c 2.79694,0 5.01219,0.83245 6.59149,2.47445 1.57629,1.63959 2.37498,3.92656 2.37498,6.78981 0,2.89941 -0.84993,5.25029 -2.5317,6.98632 -1.67877,1.74206 -3.99348,2.62213 -6.8718,2.62213 -2.76077,0 -4.9941,-0.83487 -6.63368,-2.48651 -1.63958,-1.65465 -2.47445,-3.92113 -2.47445,-6.74219 0,-2.96571 0.85596,-5.3398 2.53473,-7.05774 1.68178,-1.71614 4.03868,-2.58596 7.01043,-2.58596 m -16.45613,0 c 0.61786,0 1.32915,0.0732 2.10976,0.2179 0.78965,0.14618 1.43765,0.32671 1.92892,0.53739 l 0.0663,0.0302 0,3.9142 -0.17481,-0.11754 c -0.53347,-0.36167 -1.17242,-0.66005 -1.89878,-0.88007 -0.72636,-0.22002 -1.45574,-0.33455 -2.17004,-0.33455 -0.77157,0 -1.38641,0.17481 -1.82645,0.51538 -0.43702,0.34058 -0.65101,0.75952 -0.65101,1.28485 0,0.59073 0.17481,1.05488 0.51538,1.38641 0.34962,0.34359 1.20558,0.78664 2.54076,1.32312 1.67575,0.67513 2.87831,1.44067 3.57152,2.27252 0.69622,0.83787 1.04885,1.87467 1.04885,3.08929 0,1.68479 -0.65704,3.05915 -1.95303,4.09293 -1.28696,1.02173 -3.05313,1.54013 -5.24426,1.54013 -0.7113,0 -1.52807,-0.0934 -2.42623,-0.27729 -0.90418,-0.18686 -1.66671,-0.42496 -2.27553,-0.70225 l -0.0663,-0.0332 0,-4.1291 0.18084,0.1296 c 0.72635,0.52443 1.53409,0.93432 2.39909,1.21764 0.86501,0.28331 1.65164,0.42798 2.34485,0.42798 1.86262,0 2.76981,-0.58772 2.76981,-1.79632 0,-0.42496 -0.0874,-0.76855 -0.26522,-1.02172 -0.18084,-0.25619 -0.50333,-0.52141 -0.95542,-0.78363 -0.46113,-0.26522 -1.19051,-0.6058 -2.16703,-1.00666 -1.16338,-0.50031 -2.03742,-0.98857 -2.60706,-1.45874 -0.57265,-0.47018 -1.00364,-1.03379 -1.28092,-1.67274 -0.27729,-0.63896 -0.41894,-1.38943 -0.41894,-2.23333 0,-1.62843 0.65402,-2.97265 1.93797,-3.99739 1.27489,-1.01781 2.94763,-1.5341 4.96697,-1.5341 m -18.08064,15.36598 c 1.56424,0 2.76077,-0.50634 3.55645,-1.50094 0.80171,-1.00666 1.20859,-2.5076 1.20859,-4.46064 0,-1.93193 -0.43099,-3.41479 -1.28394,-4.40728 -0.84691,-0.99159 -2.03139,-1.49191 -3.51726,-1.49191 -1.5341,0 -2.74872,0.52443 -3.61372,1.55821 -0.87103,1.04072 -1.31107,2.53564 -1.31107,4.44346 0,1.85056 0.44004,3.30629 1.31107,4.32802 0.865,1.0157 2.09167,1.53108 3.64988,1.53108 m 0.18988,-15.36749 c 2.79694,0 5.0152,0.83245 6.59149,2.47596 1.57931,1.63958 2.378,3.92807 2.378,6.79132 0,2.89639 -0.85294,5.24727 -2.53171,6.9833 -1.68178,1.74206 -3.99649,2.62213 -6.87179,2.62213 -2.76378,0 -4.99712,-0.83486 -6.6367,-2.48651 -1.63958,-1.65465 -2.47143,-3.92113 -2.47143,-6.73917 0,-2.96572 0.85294,-5.34161 2.53171,-7.05956 1.68178,-1.71734 4.03868,-2.58747 7.01043,-2.58747 m -16.05226,3.55194 0.0452,0 c 0.39483,-1.01269 0.91323,-1.82645 1.63054,-2.41598 0.81678,-0.67331 1.76919,-1.0157 2.83311,-1.0157 0.70526,0 1.26284,0.085 1.65767,0.25317 l 0.0693,0.0301 0,4.27287 -0.18084,-0.1296 c -0.1959,-0.14166 -0.52744,-0.27728 -0.98556,-0.40085 -0.46414,-0.12358 -0.89213,-0.18687 -1.27489,-0.18687 -1.12421,0 -2.04647,0.48524 -2.73666,1.4476 -0.70225,0.97049 -1.0579,2.25744 -1.0579,3.82469 l 0,9.20759 -4.23459,0 0,-18.00469 4.23459,0 0,3.12094 z m -11.82068,-3.55194 c 0.7565,0 1.55218,0.0853 2.36896,0.25408 0.81677,0.16938 1.47683,0.39271 1.95906,0.66306 l 0.0573,0.0322 0,4.08992 -0.17783,-0.1296 c -1.28394,-0.93131 -2.64021,-1.4045 -4.03265,-1.4045 -1.62753,0 -2.96572,0.55156 -3.97238,1.63898 -1.01268,1.09105 -1.52505,2.5709 -1.52505,4.39735 0,1.81439 0.49127,3.25505 1.46176,4.28281 0.97049,1.02474 2.30265,1.54314 3.96634,1.54314 0.59677,0 1.28093,-0.13261 2.02839,-0.39181 0.75047,-0.26222 1.44971,-0.6269 2.07058,-1.07899 l 0.18084,-0.1296 0,3.87894 -0.0573,0.0332 c -1.37737,0.79267 -3.09532,1.19352 -5.10863,1.19352 -1.72398,0 -3.28219,-0.37674 -4.62942,-1.1242 -1.35326,-0.74746 -2.41718,-1.82645 -3.17066,-3.20382 -0.75349,-1.37737 -1.13325,-2.9386 -1.13325,-4.63846 0,-1.94399 0.39181,-3.68605 1.1664,-5.17403 0.77759,-1.49492 1.91686,-2.67035 3.39671,-3.49406 1.47382,-0.8213 3.20684,-1.23813 5.15083,-1.23813 m -12.63445,18.4387 -4.23459,0 0,-18.0044 4.23459,0 z m -2.07359,-25.67578 c 0.7354,0 1.35326,0.24413 1.84152,0.72636 0.48826,0.48343 0.73841,1.07115 0.73841,1.74718 0,0.69019 -0.25618,1.27279 -0.75951,1.73302 -0.4973,0.45661 -1.10913,0.68868 -1.82042,0.68868 -0.70828,0 -1.32011,-0.23207 -1.81138,-0.69019 -0.4973,-0.45872 -0.74746,-1.04162 -0.74746,-1.73151 0,-0.70044 0.25317,-1.29419 0.7565,-1.76617 0.4973,-0.47018 1.10612,-0.70737 1.80234,-0.70737 m -10.70854,6.34254 -7.67044,19.33324 -3.0652,0 -7.7941,-19.33505 -0.1386,0 0,19.33505 -4.0628,0 0,-25.12393 6.2268,0 7.3811,18.66233 7.60421,-18.66233 5.98268,0 0,25.12422 -4.32199,0 0,-19.33323 z"
         inkscape:connector-curvature="0"
         style="fill:#ffffff;fill-opacity:1" />
      <path
         id="path4317"
         d="m 578.33696,479.52461 0,2.58219 18.36085,0 0,-2.58219 -18.36085,0 z m 20.96787,0 0,2.58219 26.16949,0 c 0,0 -2.66909,-2.58219 -6.2196,-2.58219 l -19.94989,0 z m 31.30904,0 0,2.58219 15.82832,0 -0.94349,-2.58219 -14.88483,0 z m 27.17505,0 -0.93108,2.58219 15.67935,0 0,-2.58219 -14.74827,0 z m -79.45196,5.02162 0,2.57598 18.36085,0 0,-2.57598 -18.36085,0 z m 20.96787,0 0,2.57598 29.21101,0 c 0,0 -0.34761,-1.9863 -0.94349,-2.57598 l -28.26752,0 z m 31.30904,0 0,2.57598 17.56633,0 -0.86901,-2.57598 -16.69732,0 z m 25.30048,0 -0.86901,2.57598 17.49185,0 0,-2.57598 -16.62284,0 z m -72.30128,5.02161 0,2.58219 7.95761,0 0,-2.58219 -7.95761,0 z m 20.96787,0 0,2.58219 7.95761,0 0,-2.58219 -7.95761,0 z m 15.69176,0 0,2.58219 7.94519,0 c 0.0124,0 0.50899,-1.36558 0.50899,-2.58219 l -8.45418,0 z m 15.61728,0 0,2.58219 14.10272,0 -0.9435,-2.58219 -13.15922,0 z m 18.28636,0 -0.94349,2.58219 14.17721,0 0,-2.58219 -13.23372,0 z m -70.56327,5.02782 0,2.58219 7.95761,0 0,-2.58219 -7.95761,0 z m 20.96787,0 0,2.58219 20.3099,0 c 0,0 1.70077,-1.32834 2.24701,-2.58219 l -22.55691,0 z m 31.30904,0 0,2.58219 7.94519,0 0,-1.44007 0.50899,1.44007 14.57447,0 0.53382,-1.44007 0,1.44007 7.95761,0 0,-2.58219 -14.93449,0 -0.79452,2.18492 -0.79452,-2.18492 -14.99655,0 z m -52.27691,5.0154 0,2.58219 7.95761,0 0,-2.58219 -7.95761,0 z m 20.96787,0 0,2.58219 22.55691,0 c -0.54624,-1.25385 -2.24701,-2.58219 -2.24701,-2.58219 l -20.3099,0 z m 31.30904,0 0,2.58219 7.94519,0 0,-2.58219 -7.94519,0 z m 9.39767,0 0.95591,2.58219 10.92464,0 0.91866,-2.58219 -12.79921,0 z m 14.1648,0 0,2.58219 7.95761,0 0,-2.58219 -7.95761,0 z m -75.83938,5.02782 0,2.58219 7.95761,0 0,-2.58219 -7.95761,0 z m 20.96787,0 0,2.58219 7.95761,0 0,-2.58219 -7.95761,0 z m 15.69176,0 0,2.58219 8.45418,0 c 0,-1.21661 -0.50899,-2.58219 -0.50899,-2.58219 l -7.94519,0 z m 15.61728,0 0,2.58219 7.94519,0 0,-2.58219 -7.94519,0 z m 11.19775,0 0.93108,2.58219 7.32448,0 0.94349,-2.58219 -9.19905,0 z m 12.36472,0 0,2.58219 7.95761,0 0,-2.58219 -7.95761,0 z m -80.96651,5.01541 0,2.5946 18.36084,0 0,-2.5946 -18.36084,0 z m 20.81889,0 0,2.5946 28.26752,0 c 0.59588,-0.59589 0.94349,-2.5946 0.94349,-2.5946 l -29.21101,0 z m 31.4456,0 0,2.5946 13.08474,0 0,-2.5946 -13.08474,0 z m 18.1498,0 0.95591,2.5946 3.72431,0 0.90625,-2.5946 -5.58647,0 z m 10.55222,0 0,2.5946 13.23371,0 0,-2.5946 -13.23371,0 z m -80.96651,5.02781 0,2.58219 18.36084,0 0,-2.58219 -18.36084,0 z m 20.81889,0 0,2.58219 19.94989,0 c 3.55051,0 6.2196,-2.58219 6.2196,-2.58219 l -26.16949,0 z m 31.4456,0 0,2.58219 13.08474,0 0,-2.58219 -13.08474,0 z m 19.9623,0 0.93108,2.56978 0.14897,0.0124 0.94349,-2.58219 -2.02354,0 z m 8.73972,0 0,2.58219 13.23371,0 0,-2.58219 -13.23371,0 z"
         class="logotype logotext"
         inkscape:connector-curvature="0"
         style="fill:#ffffff;fill-opacity:1" />
      <path
         id="path4307"
         d="m 408.70174,506.6351 0,-0.84004 c -2.80251,0 -5.76138,0.59884 -5.76138,3.90288 0,1.67386 0.86708,2.80709 2.35379,2.80709 1.09164,0 2.06684,-0.66954 2.68232,-1.75911 0.76353,-1.34116 0.72527,-2.60123 0.72527,-4.11082 m 3.90871,9.44636 c -0.25617,0.22873 -0.62692,0.24536 -0.91594,0.0936 -1.28627,-1.06877 -1.51521,-1.56573 -2.22384,-2.58459 -2.12631,2.17081 -3.63174,2.81956 -6.38892,2.81956 -3.26038,0 -5.80131,-2.01279 -5.80131,-6.04043 0,-3.14602 1.70713,-5.28772 4.1337,-6.33569 2.10427,-0.9253 5.04235,-1.08957 7.2876,-1.34533 l 0,-0.50111 c 0,-0.92323 0.0707,-2.01279 -0.46868,-2.80917 -0.47491,-0.7132 -1.37942,-1.00847 -2.1758,-1.00847 -1.47632,0 -2.79669,0.75895 -3.1169,2.32884 -0.0665,0.34933 -0.3223,0.69241 -0.67163,0.70905 l -3.76149,-0.40339 c -0.31605,-0.0707 -0.66538,-0.32853 -0.57805,-0.81301 0.86708,-4.55788 4.98414,-5.93023 8.66869,-5.93023 1.88595,0 4.34995,0.50112 5.83811,1.92962 1.88595,1.7591 1.7063,4.10873 1.7063,6.6663 l 0,6.04043 c 0,1.81524 0.7523,2.61162 1.46093,3.59306 0.25056,0.34725 0.30503,0.76727 -0.0104,1.02927 -0.79056,0.65914 -2.19701,1.88595 -2.97135,2.57212 l -0.0104,0 m 46.90326,-9.45676 0,-0.84004 c -2.80917,0 -5.76804,0.59884 -5.76804,3.90288 0,1.67386 0.87123,2.80709 2.36003,2.80709 1.0854,0 2.06684,-0.66954 2.68232,-1.75911 0.76311,-1.34116 0.72569,-2.60123 0.72569,-4.11082 m 3.90704,9.44636 c -0.25576,0.22873 -0.62588,0.24536 -0.9149,0.0936 -1.2871,-1.06877 -1.52207,-1.56573 -2.22488,-2.58459 -2.12506,2.17081 -3.63465,2.81956 -6.38768,2.81956 -3.2666,0 -5.8013,-2.01279 -5.8013,-6.04043 0,-3.14602 1.70089,-5.28772 4.13161,-6.33569 2.10428,-0.9253 5.04236,-1.08957 7.29011,-1.34533 l 0,-0.50111 c 0,-0.92323 0.0707,-2.01279 -0.47617,-2.80917 -0.46785,-0.7132 -1.37235,-1.00847 -2.17497,-1.00847 -1.47632,0 -2.79045,0.75895 -3.11274,2.32884 -0.0645,0.34933 -0.32022,0.69241 -0.67579,0.70905 l -3.75525,-0.40339 c -0.31605,-0.0707 -0.67162,-0.32853 -0.57805,-0.81301 0.86084,-4.55788 4.98205,-5.93023 8.66869,-5.93023 1.88594,0 4.34994,0.50112 5.83666,1.92962 1.88802,1.7591 1.70712,4.10873 1.70712,6.6663 l 0,6.04043 c 0,1.81524 0.75272,2.61162 1.46176,3.59306 0.24536,0.34725 0.29943,0.76727 -0.0208,1.02927 -0.79015,0.65914 -2.19785,1.88595 -2.97135,2.57212 m 47.73082,0.0437 -3.85922,0 c -0.38883,-0.027 -0.69865,-0.33685 -0.69865,-0.71944 l 0,-19.89703 c 0.0333,-0.36388 0.35556,-0.64874 0.74855,-0.64874 l 3.59099,0 c 0.33893,0.0208 0.61756,0.24535 0.69242,0.55725 l 0,3.04205 0.0707,0 c 1.08541,-2.72183 2.60539,-4.01933 5.28356,-4.01933 1.73831,0 3.43296,0.62796 4.5246,2.34548 1.01263,1.59068 1.01263,4.26677 1.01263,6.19221 l 0,12.52168 c -0.0437,0.34933 -0.36388,0.62587 -0.74647,0.62587 l -3.88626,0 c -0.35348,-0.027 -0.64875,-0.28902 -0.68617,-0.62587 l 0,-10.80415 c 0,-2.17497 0.24951,-5.35842 -2.42657,-5.35842 -0.94401,0 -1.80901,0.63212 -2.24151,1.59068 -0.54478,1.21641 -0.61548,2.42657 -0.61548,3.76774 l 0,10.71058 c 0,0.39923 -0.34309,0.71944 -0.75687,0.71944 m -16.32874,-21.68524 c 5.7514,0 8.86415,4.94047 8.86415,11.22002 0,6.06746 -3.43921,10.88109 -8.86415,10.88109 -5.64744,0 -8.72068,-4.94047 -8.72068,-11.09318 0,-6.1943 3.11275,-11.00793 8.72068,-11.00793 m 0.0333,4.063 c -2.85699,0 -3.03581,3.8904 -3.03581,6.31697 0,2.43073 -0.0374,7.62072 3.00254,7.62072 3.00462,0 3.14602,-4.18568 3.14602,-6.737 0,-1.68009 -0.0707,-3.68456 -0.57805,-5.27732 -0.43458,-1.38483 -1.30166,-1.92337 -2.5347,-1.92337 m -71.66797,17.62224 -3.87585,0 c -0.37012,-0.027 -0.66539,-0.30358 -0.69242,-0.65914 l 0,-19.89079 c 0,-0.39923 0.33269,-0.71528 0.74648,-0.71528 l 3.61386,0 c 0.37636,0.0208 0.67578,0.30565 0.70281,0.66538 l 0,2.60123 0.0707,0 c 0.94401,-2.5139 2.71559,-3.68664 5.10265,-3.68664 2.42657,0 3.94239,1.17274 5.03196,3.68664 0.93778,-2.5139 3.06908,-3.68664 5.35425,-3.68664 1.62396,0 3.40178,0.67162 4.4851,2.17497 1.2268,1.67385 0.97728,4.10666 0.97728,6.23797 l 0,12.55286 c 0,0.39923 -0.33269,0.71944 -0.74856,0.71944 l -3.86961,0 c -0.38676,-0.027 -0.69865,-0.33685 -0.69865,-0.71944 l 0,-10.54216 c 0,-0.84004 0.0769,-2.93184 -0.10813,-3.72822 -0.28902,-1.33701 -1.1561,-1.71129 -2.27894,-1.71129 -0.93777,0 -1.91921,0.62588 -2.31636,1.62812 -0.39715,1.00431 -0.35972,2.68232 -0.35972,3.81139 l 0,10.54216 c 0,0.39923 -0.33269,0.71944 -0.74648,0.71944 l -3.86962,0 c -0.39299,-0.027 -0.69865,-0.33685 -0.69865,-0.71944 l 0,-10.54216 c 0,-2.21864 0.36388,-5.48317 -2.38914,-5.48317 -2.78421,0 -2.67608,3.18344 -2.67608,5.48317 l 0,10.54216 c 0,0.39923 -0.3327,0.71944 -0.74649,0.71944 m 46.46245,-17.75324 0,-2.84659 c 0,-0.43042 0.32645,-0.71945 0.71944,-0.71945 l 12.74,0 c 0.40755,0 0.73609,0.29527 0.73609,0.71945 l 0,2.43696 c 0,0.40963 -0.34933,0.94401 -0.96066,1.78822 l -6.60184,9.42556 c 2.4536,-0.0603 5.04236,0.30566 7.26723,1.55949 0.50111,0.28279 0.63835,0.69657 0.67578,1.1062 l 0,3.03581 c 0,0.41379 -0.45745,0.90035 -0.93777,0.64875 -3.91953,-2.05437 -9.12614,-2.27894 -13.45945,0.0228 -0.44082,0.23913 -0.9045,-0.2412 -0.9045,-0.65498 l 0,-2.88402 c 0,-0.46369 0,-1.25383 0.46992,-1.95664 l 7.64774,-10.96842 -6.6559,0 c -0.40963,0 -0.73608,-0.28903 -0.73608,-0.71321 m 8.32976,21.9306 c -0.92738,-1.18937 -6.15063,-0.56141 -8.49403,-0.28486 -0.7132,0.0873 -0.82341,-0.53439 -0.17882,-0.98144 4.15864,-2.92561 10.98298,-2.0814 11.77935,-1.09996 0.79639,0.98559 -0.20793,7.82864 -4.11498,11.09318 -0.60092,0.50111 -1.17273,0.23496 -0.90658,-0.43043 0.87956,-2.1916 2.84659,-7.10295 1.91506,-8.29649 m -3.02541,3.46 c 1.20392,-0.89411 0.17466,-2.2228 -1.05838,-1.70089 -8.1551,3.46207 -17.0234,5.12969 -25.08701,5.12969 -11.95402,0 -23.52753,-3.27494 -32.8878,-8.72068 -0.81759,-0.48032 -1.42849,0.35973 -0.74647,0.9752 8.67201,7.83281 20.13739,12.54455 32.87116,12.54455 9.08247,0 19.63087,-2.86323 26.9085,-8.22787 z"
         inkscape:connector-curvature="0"
         style="fill:#ffffff;fill-opacity:1" />
      <g
         id="g4283"
         transform="matrix(0.28246639,0,0,0.28246639,728.48632,482.15984)"
         style="fill:#ffffff;fill-opacity:1">
        <path
           id="path4285"
           d="m 0.06,27.679 17.852,0 0,39.662 37.651,0 0,-39.662 17.875,0 0,97.358 -17.875,0 0,-40.495 -37.651,0 0,40.495 -17.852,0 0,-97.358 0,0 z"
           inkscape:connector-curvature="0"
           style="fill:#ffffff;fill-opacity:1" />
        <path
           id="path4287"
           d="m 129.993,93.326 c 0,8.15 -6.64,14.782 -14.788,14.782 -8.151,0 -14.787,-6.632 -14.787,-14.782 l 0,-41.916 -16.93,0 0,41.916 c 0,17.487 14.229,31.711 31.717,31.711 17.484,0 31.712,-14.224 31.712,-31.711 l 0,-41.916 -16.924,0 0,41.916"
           inkscape:connector-curvature="0"
           style="fill:#ffffff;fill-opacity:1" />
        <path
           id="path4289"
           d="m 194.179,51.901 c -8.398,0 -14.26,2.437 -19.921,7.994 l 0,-32.216 -16.985,0 0,59.705 c 0,22.348 16.158,37.653 34.311,37.653 20.181,0 37.863,-15.578 37.863,-36.567 0,-20.723 -16.305,-36.569 -35.268,-36.569 l 0,0 z m 0.422,57.423 c -11.509,0 -20.31,-9.612 -20.31,-20.854 0,-11.244 8.801,-20.859 20.31,-20.859 9.752,0 18.558,9.615 18.558,20.859 0,11.242 -8.806,20.854 -18.558,20.854 l 0,0 z"
           inkscape:connector-curvature="0"
           style="fill:#ffffff;fill-opacity:1" />
        <path
           id="path4291"
           d="m 257.974,56.18 c 0,-8.538 5.689,-11.245 11.917,-11.245 5.014,0 11.649,3.792 15.979,8.398 l 11.103,-13.001 c -5.549,-7.448 -16.788,-12.596 -25.998,-12.596 -18.421,0 -31.694,10.7 -31.694,28.444 0,32.91 40.497,22.478 40.497,40.902 0,5.682 -5.551,10.698 -11.913,10.698 -10.026,0 -13.278,-4.876 -17.881,-10.024 l -12.327,12.729 c 7.86,9.617 17.608,14.495 29.257,14.495 17.47,0 31.556,-10.835 31.556,-27.767 0,-36.566 -40.496,-25.188 -40.496,-41.033"
           inkscape:connector-curvature="0"
           style="fill:#ffffff;fill-opacity:1" />
        <path
           id="path4293"
           d="m 343.184,50.947 c -18.151,0 -34.311,15.296 -34.311,37.649 l 0,59.859 16.984,0 0,-32.369 c 5.662,5.553 11.521,7.994 19.922,7.994 18.962,0 35.269,-15.844 35.269,-36.567 0,-20.992 -17.687,-36.566 -37.864,-36.566 l 0,0 z m 3.018,57.425 c -11.508,0 -20.31,-9.625 -20.31,-20.859 0,-11.244 8.802,-20.859 20.31,-20.859 9.75,0 18.557,9.615 18.557,20.859 0,11.234 -8.807,20.859 -18.557,20.859 l 0,0 z"
           inkscape:connector-curvature="0"
           style="fill:#ffffff;fill-opacity:1" />
        <path
           id="path4295"
           d="m 506.069,109.324 c -10.018,0 -12.862,-4.332 -12.862,-10.971 l 0,-29.388 15.572,0 0,-14.896 -15.572,0 0,-19.64 -17.195,7.718 0,59.863 c 0,15.306 10.56,23.027 25.045,23.027 2.167,0 5.15,-0.14 6.777,-0.541 l 4.199,-15.438 c -1.896,0.131 -4.062,0.266 -5.964,0.266"
           inkscape:connector-curvature="0"
           style="fill:#ffffff;fill-opacity:1" />
        <path
           id="path4297"
           d="M 461.278,69.831 C 458.022,64.229 453.442,59.738 447.716,56.357 443.437,53.866 439,52.285 434,51.606 l 0,-17.8 c 5,-2.123 8.103,-6.822 8.103,-12.304 0,-7.472 -5.992,-13.527 -13.458,-13.527 -7.472,0 -13.569,6.055 -13.569,13.527 0,5.482 2.924,10.181 7.924,12.304 l 0,17.808 c -4,0.578 -8.148,1.825 -11.936,3.741 -7.737,-5.876 -33.107,-25.153 -47.948,-36.412 0.352,-1.269 0.623,-2.577 0.623,-3.957 0,-8.276 -6.702,-14.984 -14.981,-14.984 -8.279,0 -14.978,6.708 -14.978,14.984 0,8.275 6.706,14.985 14.985,14.985 2.824,0 5.436,-0.826 7.69,-2.184 l 3.132,2.376 43.036,31.008 c -2.275,2.089 -4.394,4.465 -6.089,7.131 C 393.099,73.737 391,79.717 391,86.24 l 0,1.361 c 0,4.579 0.87,8.902 2.352,12.963 1.305,3.546 3.213,6.77 5.576,9.685 l -14.283,14.318 c -1.267,-0.467 -2.598,-0.723 -3.987,-0.723 -3.092,0 -5.992,1.208 -8.179,3.391 -2.189,2.189 -3.388,5.096 -3.388,8.19 10e-4,3.093 1.206,6 3.394,8.187 2.187,2.188 5.094,3.394 8.188,3.394 3.094,0 6.002,-1.206 8.191,-3.394 2.184,-2.187 3.39,-5.095 3.39,-8.187 0,-1.197 -0.185,-2.365 -0.533,-3.475 l 14.763,-14.765 c 2.024,1.398 4.21,2.575 6.56,3.59 4.635,2.004 9.751,3.225 15.35,3.225 l 1.026,0 c 6.19,0 12.029,-1.454 17.518,-4.428 5.784,-3.143 10.311,-7.441 13.731,-12.928 C 464.107,101.142 466,95.063 466,88.375 l 0,-0.334 c 0,-6.579 -1.523,-12.649 -4.722,-18.21 l 0,0 z m -18.038,30.973 c -4.007,4.453 -8.613,7.196 -13.82,7.196 l -0.858,0 c -2.974,0 -5.883,-0.822 -8.731,-2.317 -3.21,-1.646 -5.65,-3.994 -7.647,-6.967 C 410.12,95.798 409,92.612 409,89.234 l 0,-1.026 c 0,-3.321 0.637,-6.47 2.243,-9.444 1.717,-3.251 4.036,-5.779 7.12,-7.789 3.028,-1.996 6.262,-2.975 9.864,-2.975 l 0.335,0 c 3.266,0 6.358,0.644 9.276,2.137 2.973,1.592 5.402,3.767 7.285,6.628 1.829,2.862 2.917,5.949 3.267,9.312 0.055,0.699 0.083,1.415 0.083,2.099 0,4.564 -1.744,8.791 -5.233,12.628 l 0,0 z"
           inkscape:connector-curvature="0"
           style="fill:#ffffff;fill-opacity:1" />
      </g>
    </g>
  </g>
</svg>
