<?xml version="1.0" encoding="UTF-8" standalone="no"?>
<svg
   xmlns:dc="http://purl.org/dc/elements/1.1/"
   xmlns:cc="http://creativecommons.org/ns#"
   xmlns:rdf="http://www.w3.org/1999/02/22-rdf-syntax-ns#"
   xmlns:svg="http://www.w3.org/2000/svg"
   xmlns="http://www.w3.org/2000/svg"
   version="1.1"
   id="svg5160"
   viewBox="0 0 105.66958 119"
   height="33.584446mm"
   width="29.822304mm">
  <defs
     id="defs5162" />
  <metadata
     id="metadata5165">
    <rdf:RDF>
      <cc:Work
         rdf:about="">
        <dc:format>image/svg+xml</dc:format>
        <dc:type
           rdf:resource="http://purl.org/dc/dcmitype/StillImage" />
        <dc:title></dc:title>
      </cc:Work>
    </rdf:RDF>
  </metadata>
  <g
     transform="translate(2461.4062,429.99494)"
     id="layer1">
    <g
       transform="translate(-2461.5714,-429.99494)"
       id="artificial-intelligence-(2)"
       style="fill:#4f2b73;fill-rule:nonzero">
      <path
         id="path878"
         d="m 94.43454,94.51479 1.315928,5.291662 -5.385945,0 c -0.532865,-2.629517 -2.154379,-4.846371 -4.350775,-6.216791 l 12.183315,-3.89629 0,-25.786532 C 103.31944,56.786032 106.11937,48.039532 105.81187,38.913 105.08993,17.456532 86.668847,0 64.746901,0 L 51.939045,0 C 45.304018,0 39.173207,1.341629 33.716595,3.9903387 19.296775,10.986387 10.341207,25.25871 10.341207,41.237339 c 0,4.921225 -2.1925764,9.506564 -6.016216,12.579451 L 0.16520721,57.160306 1.0934234,58.615177 C 7.4878018,68.638048 12.230108,79.564936 15.188559,91.090661 l 0.595892,2.32242 c 1.025621,3.998016 3.58108,7.243649 7.009369,8.905809 1.810594,0.87714 3.775892,1.31476 5.731639,1.31476 2.148649,0 4.289658,-0.52591 6.218667,-1.57579 L 63.387045,86.466936 c 4.940937,-2.690936 10.109153,-5.191855 15.107387,-7.610242 1.594775,-0.771581 3.18955,-1.543162 4.780505,-2.32242 4.211351,-2.061387 7.937586,-4.821419 11.100396,-8.076645 l 0,18.427726 -38.198198,12.214774 0,-3.132387 -3.81982,0 0,23.032258 52.104255,0 L 98.139766,93.581984 94.43454,94.51479 Z M 81.603766,73.085194 c -1.585226,0.777338 -3.17618,1.546999 -4.765226,2.316661 -1.772396,0.857951 -3.579171,1.744693 -5.378306,2.629516 l 0,-7.015242 -3.81982,0 0,8.928839 c -1.279639,0.646822 -2.551639,1.312838 -3.819819,1.980774 l 0,-10.909613 -3.81982,0 0,12.932613 -3.81982,2.078661 0,-15.011274 -3.81982,0 0,17.089936 -19.435243,10.579483 c -2.607027,1.418402 -5.775568,1.485582 -8.470451,0.1785 -2.414126,-1.168887 -4.22663,-3.504741 -4.971495,-6.406806 L 18.888054,90.134823 C 18.729531,89.51679 18.54618,88.906435 18.378108,88.292242 l 5.332469,0 0,-3.83871 -6.453586,0 C 14.363478,75.167693 10.343117,66.296435 5.2264685,58.010581 l 1.4859099,-1.195758 c 4.7346666,-3.806081 7.4486486,-9.483533 7.4486486,-15.577484 0,-14.493049 8.130486,-27.441016 21.215279,-33.7902422 4.935207,-2.3953549 10.508325,-3.6083871 16.562739,-3.6083871 l 0.42018,0 0,12.2262903 c -9.018594,4.324306 -15.279279,13.548726 -15.279279,24.241452 0,14.817419 11.994234,26.870967 26.738739,26.870967 14.744504,0 26.738738,-12.053548 26.738738,-26.870967 0,-14.81742 -11.994234,-26.870968 -26.738738,-26.870968 -2.654775,0 -5.215964,0.403064 -7.63964,1.132419 l 0,-10.7291933 8.567856,0 c 19.885982,0 36.593869,15.7924513 37.248969,35.2028873 0.48321,14.379806 -7.519311,27.742355 -20.392104,34.043597 z M 50.401568,51.075952 46.333459,55.164177 c -3.38245,-4.01529 -5.433693,-9.197548 -5.433693,-14.857725 0,-5.660178 2.051243,-10.842436 5.433693,-14.857726 l 4.068109,4.088226 c -2.354919,2.957725 -3.772073,6.696629 -3.772073,10.7695 0,4.072871 1.417154,7.811774 3.772073,10.7695 z m 2.700612,2.713967 c 2.941261,2.366565 6.663676,3.790726 10.716505,3.790726 4.052829,0 7.775243,-1.424161 10.716504,-3.790726 l 4.068108,4.088226 c -3.995531,3.399178 -9.152288,5.460565 -14.784612,5.460565 -5.632325,0 -10.789081,-2.061387 -14.784613,-5.460565 L 53.10218,53.789919 Z M 50.449315,40.306452 c 0,-7.40871 5.999027,-13.435484 13.36937,-13.435484 7.370342,0 13.369369,6.026774 13.369369,13.435484 0,7.408709 -5.999027,13.435483 -13.369369,13.435483 -7.370343,0 -13.36937,-6.026774 -13.36937,-13.435483 z m 26.786487,10.7695 c 2.354919,-2.957726 3.772072,-6.696629 3.772072,-10.7695 0,-4.072871 -1.417153,-7.811775 -3.772072,-10.7695 l 4.068108,-4.088226 c 3.38245,4.01529 5.433694,9.197548 5.433694,14.857726 0,5.660177 -2.051244,10.842435 -5.433694,14.857725 L 77.235802,51.075952 Z M 74.535189,26.822984 c -2.941261,-2.366565 -6.663675,-3.790726 -10.716504,-3.790726 -4.052829,0 -7.775244,1.424161 -10.716505,3.790726 l -4.068108,-4.088226 c 3.995532,-3.399177 9.152288,-5.460565 14.784613,-5.460565 5.632324,0 10.789081,2.061388 14.784612,5.460565 l -4.068108,4.088226 z M 56.179045,103.13077 72.207009,98.004177 c -0.481297,1.145855 -0.748685,2.403033 -0.748685,3.721633 0,2.83296 1.250991,5.355 3.199099,7.11313 l -18.478378,5.65249 0,-11.36066 z m 10.924685,12.03052 12.823135,-3.92124 -0.0076,-0.0269 c 0.360973,0.0403 0.716216,0.1094 1.088649,0.1094 0.236829,0 0.460288,-0.0537 0.693297,-0.071 l 1.946198,3.90972 -16.543639,0 z m 13.904144,-7.67742 c -3.158991,0 -5.72973,-2.58345 -5.72973,-5.75806 0,-3.174617 2.570739,-5.758068 5.72973,-5.758068 3.158991,0 5.72973,2.583451 5.72973,5.758068 0,3.17461 -2.570739,5.75806 -5.72973,5.75806 z m 6.910054,7.67742 -2.480973,-4.98456 c 0.794522,-0.42226 1.535567,-0.92897 2.179207,-1.55084 l 8.672901,6.5354 -8.371135,0 z m 1.879351,-9.6889 c 0.246379,-0.58157 0.43737,-1.19384 0.567244,-1.82723 l 6.3409,0 2.152469,8.65629 -9.060613,-6.82906 z" />
      <path
         id="path880"
         d="m 63.818685,49.903226 c 5.265621,0 9.549549,-4.305113 9.549549,-9.596774 0,-5.291662 -4.283928,-9.596775 -9.549549,-9.596775 -5.265622,0 -9.54955,4.305113 -9.54955,9.596775 0,5.291661 4.283928,9.596774 9.54955,9.596774 z m 0,-15.354839 c 3.158991,0 5.729729,2.583452 5.729729,5.758065 0,3.174613 -2.570738,5.758064 -5.729729,5.758064 -3.158991,0 -5.72973,-2.583451 -5.72973,-5.758064 0,-3.174613 2.570739,-5.758065 5.72973,-5.758065 z" />
      <rect
         height="3.8387096"
         width="13.36937"
         y="47.983871"
         x="17.980846"
         id="Rectangle-path" />
      <rect
         height="3.8387096"
         width="3.8198199"
         y="99.80645"
         x="79.097961"
         id="rect883" />
      <rect
         height="3.8387096"
         width="3.8198199"
         y="38.387096"
         x="94.377243"
         id="rect885" />
      <rect
         height="3.8387659"
         width="3.8198757"
         y="22.076754"
         x="90.028824"
         transform="matrix(0.49989269,0.86608735,-0.86608735,0.49989269,66.761998,-67.626358)"
         id="rect887" />
      <rect
         height="3.8387659"
         width="3.8198757"
         y="10.134006"
         x="78.14019"
         transform="matrix(-0.86608735,-0.49989269,0.49989269,-0.86608735,143.35513,62.509152)"
         id="rect889" />
      <rect
         height="3.8387096"
         width="3.8198199"
         y="5.7580647"
         x="61.908775"
         id="rect891" />
      <rect
         height="3.8387659"
         width="3.8198757"
         y="66.646942"
         x="78.143089"
         transform="matrix(-0.49989269,-0.86608735,0.86608735,-0.49989269,60.686521,172.17504)"
         id="rect893" />
      <rect
         height="3.8387659"
         width="3.8198757"
         y="54.70121"
         x="90.025314"
         transform="matrix(-0.86608735,-0.49989269,0.49989269,-0.86608735,143.25499,151.61674)"
         id="rect895" />
    </g>
  </g>
</svg>
