<?xml version="1.0" encoding="UTF-8" standalone="no"?>
<svg xmlns="http://www.w3.org/2000/svg" viewBox="0 0 371.2 124.5">
<path d="M98.7,78.4L80.5,60.2l-1.7-1.7l1.7-1.7l18.2-18.2c-4.8-4-10.7-6-16.5-6c-6.6,0-13.3,2.5-18.3,7.6l0,0    c-2.4,2.4-4.3,5.3-5.6,8.4c-1.3,3.1-2,6.5-2,9.9c0,6.2,0.1,26.6,0.1,36.8L66.6,85c-1.3-0.8-2.6-1.7-3.8-2.7    c-1.2-1-1.5-2.5-0.5-3.6c1-1.1,2.5-1,3.7,0c5,4,11.1,5.9,17.1,5.7C88.7,84.2,94.2,82.2,98.7,78.4L98.7,78.4z M85.6,58.5l20,20    c-6.5,6.5-12.4,10.4-22.4,10.8c-4,0.1-8.1-0.5-12-2l-15.6,15.6l-0.6,0.6c-0.6,0.6-1.5,0.8-2.2,0.4c-0.8-0.3-1.3-1.1-1.3-1.9v-0.9    c0-0.1-0.1-35.9-0.1-42.6c0-4.1,0.8-8.1,2.3-11.8c1.5-3.7,3.8-7.1,6.7-10v0c6-6,13.9-9,21.7-9c10.1,0,16.5,4,23.5,10.7    C98.9,45,92.3,51.8,85.6,58.5z"/>
<path d="M134.3,67c0.3,0,0.5,0.1,0.7,0.3l2,2.2c-1.1,1.4-2.5,2.4-4.1,3.1c-1.6,0.7-3.5,1.1-5.8,1.1c-2,0-3.8-0.3-5.4-1   c-1.6-0.7-3-1.6-4.1-2.9c-1.1-1.2-2-2.7-2.6-4.4c-0.6-1.7-0.9-3.6-0.9-5.6c0-2,0.3-3.9,1-5.6c0.7-1.7,1.6-3.2,2.8-4.4   c1.2-1.2,2.6-2.2,4.2-2.9c1.6-0.7,3.5-1,5.4-1c2,0,3.7,0.3,5.3,1c1.5,0.7,2.8,1.5,3.9,2.6l-1.7,2.3c-0.1,0.2-0.2,0.3-0.4,0.4   c-0.2,0.1-0.4,0.2-0.7,0.2c-0.2,0-0.4-0.1-0.6-0.2c-0.2-0.1-0.4-0.2-0.7-0.4c-0.2-0.2-0.5-0.3-0.8-0.5c-0.3-0.2-0.7-0.4-1.1-0.5   c-0.4-0.2-0.9-0.3-1.4-0.4c-0.5-0.1-1.2-0.2-1.9-0.2c-1.2,0-2.3,0.2-3.3,0.6c-1,0.4-1.9,1.1-2.6,1.9c-0.7,0.8-1.3,1.8-1.7,3   c-0.4,1.2-0.6,2.5-0.6,4c0,1.5,0.2,2.9,0.7,4.1c0.4,1.2,1,2.2,1.8,3c0.7,0.8,1.6,1.4,2.6,1.9c1,0.4,2.1,0.7,3.2,0.7   c0.7,0,1.3,0,1.9-0.1c0.6-0.1,1.1-0.2,1.5-0.4c0.5-0.2,0.9-0.4,1.3-0.6c0.4-0.3,0.8-0.6,1.2-0.9c0.1-0.1,0.3-0.2,0.4-0.3   C134,67.1,134.1,67,134.3,67L134.3,67z M144.4,56.2c0.8-0.7,1.6-1.3,2.5-1.7c0.9-0.4,2-0.7,3.2-0.7c1.1,0,2,0.2,2.8,0.5   c0.8,0.4,1.5,0.9,2,1.5c0.5,0.6,1,1.4,1.2,2.3c0.3,0.9,0.4,1.9,0.4,3v12.3h-4.6V61.2c0-1.2-0.3-2.1-0.8-2.7c-0.5-0.6-1.4-1-2.5-1   c-0.8,0-1.6,0.2-2.3,0.5c-0.7,0.4-1.4,0.9-2,1.5v13.9h-4.6V45.6h4.6V56.2L144.4,56.2z M171.1,65.2c-1.3,0.1-2.5,0.2-3.4,0.3   c-0.9,0.2-1.6,0.4-2.2,0.7c-0.6,0.3-0.9,0.6-1.2,0.9c-0.2,0.4-0.4,0.7-0.4,1.1c0,0.8,0.2,1.4,0.7,1.7c0.5,0.4,1.1,0.5,1.9,0.5   c1,0,1.8-0.2,2.5-0.5c0.7-0.3,1.4-0.9,2-1.6V65.2L171.1,65.2z M160.5,56.9c2.2-2,4.9-3,8-3c1.1,0,2.1,0.2,3,0.6   c0.9,0.4,1.6,0.9,2.3,1.5c0.6,0.7,1.1,1.4,1.4,2.4c0.3,0.9,0.5,1.9,0.5,3v12.2h-2.1c-0.4,0-0.8-0.1-1-0.2c-0.2-0.1-0.4-0.4-0.6-0.8   l-0.4-1.4c-0.5,0.4-1,0.8-1.4,1.2c-0.5,0.3-0.9,0.6-1.4,0.8c-0.5,0.2-1,0.4-1.6,0.5c-0.6,0.1-1.2,0.2-1.9,0.2   c-0.8,0-1.6-0.1-2.3-0.3c-0.7-0.2-1.3-0.5-1.8-1c-0.5-0.4-0.9-1-1.2-1.6c-0.3-0.7-0.4-1.4-0.4-2.3c0-0.5,0.1-1,0.2-1.5   c0.2-0.5,0.4-0.9,0.8-1.4c0.4-0.4,0.8-0.9,1.4-1.2c0.6-0.4,1.3-0.7,2.2-1c0.9-0.3,1.9-0.5,3-0.7c1.1-0.2,2.4-0.3,3.9-0.3v-1.1   c0-1.3-0.3-2.2-0.8-2.9c-0.6-0.6-1.3-0.9-2.4-0.9c-0.8,0-1.4,0.1-1.9,0.3c-0.5,0.2-0.9,0.4-1.3,0.6s-0.7,0.4-1,0.6   c-0.3,0.2-0.7,0.3-1,0.3c-0.3,0-0.6-0.1-0.8-0.3c-0.2-0.2-0.4-0.4-0.5-0.6L160.5,56.9L160.5,56.9z M186.1,73.7   c-1.7,0-3-0.5-3.9-1.4c-0.9-0.9-1.3-2.2-1.3-3.9V57.7h-2c-0.3,0-0.5-0.1-0.6-0.2c-0.2-0.2-0.3-0.4-0.3-0.7v-1.8l3.1-0.5l1-5.3   c0.1-0.3,0.2-0.4,0.4-0.6c0.2-0.1,0.4-0.2,0.7-0.2h2.4v6.1h5.1v3.3h-5.1v10.4c0,0.6,0.2,1.1,0.4,1.4c0.3,0.3,0.7,0.5,1.2,0.5   c0.3,0,0.5,0,0.7-0.1c0.2-0.1,0.4-0.1,0.5-0.2c0.1-0.1,0.3-0.2,0.4-0.2c0.1-0.1,0.2-0.1,0.3-0.1c0.1,0,0.3,0,0.3,0.1   c0.1,0.1,0.2,0.2,0.3,0.3l1.4,2.3c-0.7,0.6-1.5,1-2.3,1.3C188,73.6,187,73.7,186.1,73.7L186.1,73.7z M198.3,68.4   c0.5,0.6,1.1,1.1,1.7,1.4c0.6,0.3,1.3,0.4,2,0.4c0.7,0,1.4-0.1,1.9-0.4c0.6-0.3,1.1-0.7,1.5-1.2c0.4-0.5,0.7-1.2,0.9-2.1   c0.2-0.8,0.3-1.9,0.3-3c0-2.1-0.4-3.6-1.1-4.6c-0.7-0.9-1.7-1.4-3-1.4c-0.9,0-1.7,0.2-2.3,0.6c-0.7,0.4-1.3,1-1.9,1.7V68.4   L198.3,68.4z M198.3,56.5c0.8-0.8,1.6-1.5,2.6-1.9c0.9-0.5,2-0.7,3.2-0.7c1.1,0,2.1,0.2,3,0.7c0.9,0.4,1.7,1.1,2.3,1.9   c0.6,0.8,1.1,1.8,1.5,3c0.3,1.2,0.5,2.5,0.5,3.9c0,1.6-0.2,3-0.6,4.3c-0.4,1.3-0.9,2.4-1.7,3.3c-0.7,0.9-1.6,1.6-2.6,2.1   c-1,0.5-2.1,0.8-3.4,0.8c-0.6,0-1.1-0.1-1.6-0.2c-0.5-0.1-0.9-0.3-1.4-0.5c-0.4-0.2-0.8-0.5-1.1-0.8c-0.3-0.3-0.7-0.6-1-1l-0.2,1.3   c-0.1,0.3-0.2,0.6-0.4,0.7c-0.2,0.1-0.4,0.2-0.7,0.2h-3.1V45.6h4.6V56.5L198.3,56.5z M223.5,53.9c1.4,0,2.7,0.2,3.9,0.7   c1.2,0.5,2.2,1.1,3,2c0.8,0.9,1.5,1.9,1.9,3.1c0.5,1.2,0.7,2.6,0.7,4.1c0,1.5-0.2,2.9-0.7,4.1c-0.5,1.2-1.1,2.3-1.9,3.1   c-0.8,0.9-1.8,1.5-3,2c-1.2,0.5-2.5,0.7-3.9,0.7c-1.4,0-2.7-0.2-3.9-0.7c-1.2-0.5-2.2-1.1-3-2c-0.8-0.9-1.5-1.9-1.9-3.1   c-0.5-1.2-0.7-2.6-0.7-4.1c0-1.5,0.2-2.9,0.7-4.1c0.5-1.2,1.1-2.3,1.9-3.1c0.8-0.9,1.8-1.5,3-2C220.7,54.1,222,53.9,223.5,53.9   L223.5,53.9z M223.5,70.1c1.6,0,2.8-0.5,3.6-1.6c0.8-1.1,1.2-2.7,1.2-4.7c0-2.1-0.4-3.7-1.2-4.7c-0.8-1.1-2-1.6-3.6-1.6   c-1.6,0-2.8,0.5-3.6,1.6c-0.8,1.1-1.2,2.7-1.2,4.7s0.4,3.6,1.2,4.7C220.6,69.6,221.8,70.1,223.5,70.1L223.5,70.1z M242.5,73.7   c-1.7,0-3-0.5-3.9-1.4c-0.9-0.9-1.3-2.2-1.3-3.9V57.7h-2c-0.3,0-0.5-0.1-0.6-0.2c-0.2-0.2-0.3-0.4-0.3-0.7v-1.8l3.1-0.5l1-5.3   c0.1-0.3,0.2-0.4,0.4-0.6c0.2-0.1,0.4-0.2,0.7-0.2h2.4v6.1h5.1v3.3H242v10.4c0,0.6,0.2,1.1,0.4,1.4c0.3,0.3,0.7,0.5,1.2,0.5   c0.3,0,0.5,0,0.7-0.1c0.2-0.1,0.4-0.1,0.5-0.2c0.1-0.1,0.3-0.2,0.4-0.2c0.1-0.1,0.2-0.1,0.3-0.1c0.1,0,0.3,0,0.3,0.1   c0.1,0.1,0.2,0.2,0.3,0.3l1.4,2.3c-0.7,0.6-1.5,1-2.3,1.3C244.4,73.6,243.5,73.7,242.5,73.7L242.5,73.7z M266.5,50.4v-4.1h-21.4   v4.1h8.2v23h5v-23H266.5L266.5,50.4z M277.2,61.6c0-0.6-0.1-1.2-0.3-1.7c-0.2-0.5-0.4-1-0.8-1.4c-0.3-0.4-0.8-0.7-1.3-1   c-0.5-0.2-1.1-0.3-1.8-0.3c-1.3,0-2.4,0.4-3.2,1.1c-0.8,0.8-1.3,1.8-1.5,3.2H277.2L277.2,61.6z M268.4,64.4c0.1,1,0.3,1.8,0.5,2.6   c0.3,0.7,0.6,1.3,1.1,1.8c0.5,0.5,1,0.8,1.6,1.1c0.6,0.2,1.3,0.4,2.1,0.4c0.8,0,1.4-0.1,1.9-0.3c0.5-0.2,1-0.4,1.4-0.6   c0.4-0.2,0.8-0.4,1.1-0.6s0.6-0.3,0.9-0.3c0.4,0,0.7,0.1,0.9,0.4l1.3,1.7c-0.5,0.6-1.1,1.1-1.7,1.5c-0.6,0.4-1.3,0.7-2,1   c-0.7,0.2-1.4,0.4-2.1,0.5c-0.7,0.1-1.4,0.2-2.1,0.2c-1.3,0-2.6-0.2-3.7-0.7c-1.2-0.4-2.2-1.1-3-2c-0.9-0.9-1.5-1.9-2-3.2   c-0.5-1.3-0.7-2.8-0.7-4.5c0-1.3,0.2-2.6,0.6-3.7c0.4-1.2,1-2.2,1.8-3c0.8-0.9,1.8-1.5,2.9-2c1.1-0.5,2.4-0.8,3.9-0.8   c1.2,0,2.3,0.2,3.4,0.6c1,0.4,1.9,1,2.6,1.7c0.7,0.7,1.3,1.7,1.7,2.7c0.4,1.1,0.6,2.3,0.6,3.7c0,0.7-0.1,1.2-0.2,1.4   c-0.1,0.2-0.4,0.4-0.9,0.4H268.4L268.4,64.4z M298.6,58.3c-0.1,0.2-0.3,0.3-0.4,0.4c-0.1,0.1-0.3,0.2-0.6,0.2   c-0.2,0-0.5-0.1-0.7-0.2c-0.2-0.1-0.5-0.3-0.8-0.5c-0.3-0.2-0.7-0.3-1.1-0.5c-0.4-0.1-1-0.2-1.6-0.2c-0.8,0-1.5,0.1-2.1,0.4   c-0.6,0.3-1.1,0.7-1.5,1.3c-0.4,0.6-0.7,1.2-0.9,2c-0.2,0.8-0.3,1.7-0.3,2.7c0,1,0.1,1.9,0.3,2.7c0.2,0.8,0.5,1.5,0.9,2   c0.4,0.5,0.9,1,1.5,1.2c0.6,0.3,1.3,0.4,2,0.4c0.7,0,1.3-0.1,1.8-0.3c0.5-0.2,0.8-0.4,1.2-0.6c0.3-0.2,0.6-0.4,0.8-0.6   c0.2-0.2,0.5-0.3,0.8-0.3c0.4,0,0.7,0.1,0.8,0.4l1.3,1.7c-0.5,0.6-1.1,1.1-1.7,1.5s-1.2,0.7-1.9,1c-0.6,0.2-1.3,0.4-2,0.5   c-0.7,0.1-1.4,0.2-2,0.2c-1.2,0-2.3-0.2-3.4-0.7c-1.1-0.4-2-1.1-2.8-1.9c-0.8-0.9-1.4-1.9-1.9-3.1c-0.5-1.2-0.7-2.6-0.7-4.2   c0-1.4,0.2-2.7,0.6-3.9c0.4-1.2,1-2.3,1.8-3.1c0.8-0.9,1.8-1.6,2.9-2.1c1.2-0.5,2.5-0.8,4-0.8c1.4,0,2.7,0.2,3.8,0.7   c1.1,0.5,2.1,1.1,2.9,2L298.6,58.3L298.6,58.3z M307.5,56.2c0.8-0.7,1.6-1.3,2.5-1.7c0.9-0.4,2-0.7,3.2-0.7c1.1,0,2,0.2,2.8,0.5   c0.8,0.4,1.5,0.9,2,1.5c0.5,0.6,1,1.4,1.2,2.3c0.3,0.9,0.4,1.9,0.4,3v12.3h-4.6V61.2c0-1.2-0.3-2.1-0.8-2.7c-0.5-0.6-1.4-1-2.5-1   c-0.8,0-1.6,0.2-2.3,0.5c-0.7,0.4-1.4,0.9-2,1.5v13.9h-4.6V45.6h4.6V56.2z"/></svg>
