<?xml version="1.0" encoding="UTF-8" standalone="no"?>
<svg
   xmlns:dc="http://purl.org/dc/elements/1.1/"
   xmlns:cc="http://creativecommons.org/ns#"
   xmlns:rdf="http://www.w3.org/1999/02/22-rdf-syntax-ns#"
   xmlns:svg="http://www.w3.org/2000/svg"
   xmlns="http://www.w3.org/2000/svg"
   version="1.1"
   id="svg5764"
   viewBox="0 0 123 113.95158"
   height="32.159668mm"
   width="34.713333mm">
  <defs
     id="defs5766" />
  <metadata
     id="metadata5769">
    <rdf:RDF>
      <cc:Work
         rdf:about="">
        <dc:format>image/svg+xml</dc:format>
        <dc:type
           rdf:resource="http://purl.org/dc/dcmitype/StillImage" />
        <dc:title></dc:title>
      </cc:Work>
    </rdf:RDF>
  </metadata>
  <g
     transform="translate(636.5,-475.38642)"
     id="layer1">
    <g
       transform="translate(-636.5,475.36233)"
       id="student-(1)"
       style="fill:#4f2b73;fill-rule:nonzero">
      <path
         id="path867"
         d="m 123,83.512155 0,-36.709193 c 0,-4.427874 -3.62874,-8.030083 -8.08869,-8.030083 l -50.663749,0 0,-0.943243 c 0,-1.238498 -0.441311,-2.375636 -1.174747,-3.267364 0.544131,-0.661105 0.923702,-1.452904 1.0861,-2.311004 2.061451,-1.20654 3.375533,-3.416423 3.375533,-5.842381 0,-1.145724 -0.29717,-2.265452 -0.854033,-3.263071 0.556623,-0.997619 0.854033,-2.117109 0.854033,-3.263071 0,-2.415942 -1.303752,-4.606268 -3.325324,-5.813523 0.0257,-0.236586 0.03844,-0.474126 0.03844,-0.71262 0,-3.4364556 -2.578676,-6.2864556 -5.916012,-6.7426941 -1.218471,-2.032682 -3.436555,-3.3267489 -5.87061,-3.3267489 -0.312545,0 -0.628212,0.023849 -0.944361,0.071548 -1.359486,-1.0927782 -3.057703,-1.7030837 -4.80757,-1.7030837 -0.233748,0 -0.467977,0.011686 -0.705328,0.035059 -1.461586,-1.08061505 -3.220823,-1.66659413 -5.046364,-1.66659413 -1.825541,0 -3.584777,0.58597908 -5.046603,1.66659413 -0.237592,-0.023372 -0.47182,-0.035059 -0.705328,-0.035059 -1.754432,0 -3.425502,0.5859791 -4.782586,1.6649247 -2.164752,0.2144059 -4.091432,1.4500419 -5.19627,3.2935983 -3.337336,0.456 -5.916011,3.306 -5.916011,6.7424557 0,0.238256 0.01273,0.476034 0.03844,0.71262 -2.021332,1.207255 -3.325324,3.397581 -3.325324,5.813523 0,1.145962 0.29717,2.265452 0.854033,3.263071 -0.556863,0.997619 -0.854033,2.117347 -0.854033,3.263071 0,2.425958 1.313842,4.635841 3.375773,5.842381 0.09057,0.478895 0.250805,0.936326 0.467496,1.362753 -1.328976,0.93895 -2.199826,2.476519 -2.199826,4.215376 l 0,3.263072 c 0,2.853338 2.338201,5.175075 5.212846,5.175075 l 0.855955,0 0.140057,0.868594 c 0.324556,2.014318 1.372699,3.843088 2.951519,5.149318 l 0.700524,0.57954 0,5.39592 c 0,0.596712 -0.386297,1.115913 -0.960938,1.291205 l -14.404453,4.399971 c -3.5886212,1.096356 -5.9998536,4.337247 -5.9998536,8.064904 l 0,23.731556 c 0,2.357988 0.823043,4.527808 2.1957422,6.245678 l -4.3782715,0 C 1.7854219,101.99423 0,103.76671 0,105.94559 l 0,4.07872 c 0,2.17888 1.7854219,3.95136 3.9802031,3.95136 l 115.0395969,0 c 2.19478,0 3.9802,-1.77248 3.9802,-3.95136 l 0,-4.07872 c 0,-2.17888 -1.78542,-3.95136 -3.9802,-3.95136 l -20.910964,0 -1.40393,-10.451992 18.206404,0 c 4.45995,0 8.08869,-3.602209 8.08869,-8.030083 z M 22.879441,42.443774 c -0.750252,0 -1.360927,-0.606013 -1.360927,-1.351067 l 0,-3.263071 c 0,-0.493682 0.270984,-0.921778 0.670254,-1.157649 l 0.930427,5.771787 -0.239754,0 z m 0.284198,-11.083519 c 0.0077,-0.05795 0.01489,-0.115669 0.02018,-0.174339 0.08,-0.873841 -0.449718,-1.689728 -1.284293,-1.978544 -1.210781,-0.418795 -2.024215,-1.543293 -2.024215,-2.798247 0,-0.92464 0.426657,-1.588845 0.784366,-1.983313 0.659683,-0.727406 0.659683,-1.832109 -2.41e-4,-2.559515 -0.357949,-0.394469 -0.784365,-1.058674 -0.784365,-1.983314 0,-1.332226 0.914813,-2.508477 2.225051,-2.860494 0.530918,-0.142857 0.975352,-0.503937 1.220391,-0.992849 0.245519,-0.488673 0.268582,-1.058435 0.06366,-1.565234 -0.147744,-0.36418 -0.222457,-0.736946 -0.222457,-1.107327 0,-1.62128 1.309758,-2.944681 2.934222,-2.981886 0.08192,0.01097 0.164321,0.02003 0.248163,0.02504 0.862441,0.04913 1.649929,-0.4715018 1.933406,-1.2795185 0.414885,-1.1824519 1.51756,-1.9828368 2.756689,-2.0088327 0.03724,0.00262 0.07471,0.00429 0.11243,0.00477 0.520588,0.0062 1.014029,-0.187933 1.382549,-0.5468661 0.722144,-0.7030795 1.672511,-1.0903933 2.67573,-1.0903933 0.259694,0 0.535002,0.033389 0.841541,0.1018368 0.622447,0.1390419 1.275164,-0.037205 1.740979,-0.4712636 0.873252,-0.8135021 1.99875,-1.2616318 3.169652,-1.2616318 1.170902,0 2.2964,0.4481297 3.169412,1.2618703 0.465574,0.4340586 1.118051,0.6105439 1.740979,0.4712636 0.306539,-0.068686 0.581847,-0.1018368 0.841541,-0.1018368 1.075529,0 2.077066,0.4478912 2.820111,1.2609163 0.514582,0.5630837 1.316244,0.7698578 2.041752,0.5270711 0.314707,-0.1051757 0.606111,-0.1564518 0.890309,-0.1564518 1.264113,0 2.397058,0.8075397 2.81891,2.0093096 0.283476,0.8077782 1.071685,1.3305559 1.933406,1.2795189 0.07856,-0.0045 0.155912,-0.01312 0.247682,-0.02504 1.624464,0.03697 2.934463,1.360607 2.934463,2.981887 0,0.370381 -0.07471,0.743146 -0.222217,1.107088 -0.20516,0.506799 -0.182098,1.076561 0.06342,1.565473 0.245519,0.488912 0.689712,0.85023 1.220871,0.992849 1.309758,0.352017 2.22481,1.528268 2.22481,2.860494 0,0.92464 -0.426656,1.588845 -0.784365,1.983314 -0.659924,0.727167 -0.659924,1.832108 0,2.559514 0.357949,0.394469 0.784365,1.058674 0.784365,1.983314 0,1.254954 -0.813433,2.37969 -2.024214,2.798247 -0.834575,0.288816 -1.364292,1.104703 -1.284294,1.978544 0.0053,0.05867 0.01249,0.116862 0.02066,0.174816 -0.02547,0.580493 -0.434825,1.083954 -1.013069,1.23659 -0.06174,0.01622 -1.903617,0.05748 -1.903617,0.05748 l -1.10748,-6.596737 c -0.16384,-0.975678 -1.052227,-1.666117 -2.043434,-1.592184 -0.08937,0.0067 -0.176813,0.01741 -0.264738,0.02933 l -0.01129,0.0014 c -0.986883,-0.01741 -1.899774,-0.515147 -2.450151,-1.339381 -0.356988,-0.533987 -0.959256,-0.855238 -1.605006,-0.855238 -0.645509,0 -1.248257,0.321251 -1.605005,0.855 -0.560467,0.839021 -1.49618,1.339857 -2.503723,1.339857 -1.007303,0 -1.943016,-0.500836 -2.503723,-1.339857 -0.356988,-0.533988 -0.959256,-0.855239 -1.605006,-0.855239 -0.645509,0 -1.248257,0.321251 -1.605005,0.855 -0.560467,0.839021 -1.49618,1.339858 -2.503723,1.339858 -1.007303,0 -1.943016,-0.500837 -2.503723,-1.339858 C 34.809,22.622561 34.206732,22.30131 33.560982,22.30131 c -0.645509,0 -1.248257,0.321251 -1.605005,0.855 -0.550618,0.824234 -1.463508,1.32197 -2.450151,1.33938 l -0.01129,-0.0014 c -0.08744,-0.01192 -0.175611,-0.02266 -0.264978,-0.02933 -0.990967,-0.07513 -1.879354,0.616744 -2.043194,1.592184 l -1.10724,6.597452 c 0,0 -1.841637,-0.04102 -1.903377,-0.05724 -0.577764,-0.152636 -0.987363,-0.656573 -1.012107,-1.237067 z m 37.232244,6.469381 0,0.943243 -1.008985,0 0.338731,-2.100892 c 0.399269,0.235871 0.670254,0.663967 0.670254,1.157649 z m -34.33766,-1.351067 0.260654,0 c 1.751789,0 3.232353,-1.245414 3.520875,-2.9609 l 0.89223,-5.315786 c 1.031086,-0.193657 1.997309,-0.619845 2.829721,-1.240168 1.169221,0.871695 2.60318,1.359176 4.108488,1.359176 1.505069,0 2.939268,-0.48772 4.108489,-1.359176 1.16922,0.871695 2.603179,1.359176 4.108488,1.359176 1.505068,0 2.939268,-0.48772 4.108488,-1.359176 0.832172,0.620561 1.798635,1.046272 2.829721,1.240168 l 0.89223,5.316025 c 0.210206,1.252092 1.057272,2.250904 2.179887,2.700703 l -0.411521,2.554268 -2.20343,0 c -4.460191,0 -8.088691,3.602447 -8.088691,8.030083 l 0,8.485607 c -0.346659,0.134272 -0.7171,0.207251 -1.091625,0.207251 l -6.290538,0 c -0.701484,0 -1.38447,-0.24541 -1.923316,-0.691393 l -6.596115,-5.456975 c -0.863403,-0.714289 -1.436362,-1.714055 -1.613895,-2.815657 l -1.62014,-10.053226 z m 1.641281,26.728469 c 2.201267,-0.672314 3.67991,-2.660159 3.67991,-4.946122 l 0,-2.209406 2.043434,1.690683 c 1.229759,1.017414 2.7884,1.577635 4.389322,1.577635 l 6.290537,0 c 0.366358,0 0.731514,-0.031 1.091625,-0.0892 l 0,12.30246 c -1.130062,0.183163 -2.278863,0.278084 -3.431988,0.278084 -6.424588,0 -12.483299,-2.91821 -16.472391,-7.867908 l 2.409551,-0.73623 z M 10.01465,72.016757 c 0,-2.038405 1.318647,-3.810652 3.280881,-4.410226 l 8.083166,-2.468887 c 4.67376,6.575034 12.282463,10.497063 20.383647,10.497063 1.150482,0 2.297601,-0.08037 3.431988,-0.235632 l 0,8.11308 c 0,4.427874 3.6285,8.030083 8.088691,8.030083 l 8.345502,0 0,10.324392 c 0,0.0432 0.0036,0.0851 0.0065,0.12736 l -10.534758,0 0,-2.166957 c 0,-4.427874 -3.62874,-8.030083 -8.088692,-8.030083 l -20.542921,0 c -0.07087,0 -0.128286,-0.057 -0.128286,-0.127356 l 0,-12.236397 c 0,-1.055812 -0.862201,-1.912005 -1.925959,-1.912005 -1.063757,0 -1.925959,0.855954 -1.925959,1.912005 l 0,12.236397 c 0,2.178879 1.785422,3.951364 3.980204,3.951364 l 12.45399,0 0,6.373032 -18.616723,0 c -3.468984,0 -6.291258,-2.801827 -6.291258,-6.245676 l 0,-23.731557 z m 37.233686,27.810515 0,2.166958 -8.473787,0 0,-6.373033 4.237013,0 c 2.33604,-2.39e-4 4.236774,1.886723 4.236774,4.206075 z M 119.0198,105.818 c 0.0709,0 0.12828,0.057 0.12828,0.12735 l 0,4.07872 c 0,0.0704 -0.0574,0.12736 -0.12828,0.12736 l -115.0395969,0 c -0.070869,0 -0.1282851,-0.057 -0.1282851,-0.12736 l 0,-4.07872 c 0,-0.0704 0.057416,-0.12735 0.1282851,-0.12735 l 115.0395969,0 z m -53.546083,-3.82377 c 0.0029,-0.0422 0.0065,-0.0844 0.0065,-0.12736 l 0,-10.324393 6.008742,0 -1.403929,10.451983 -4.611299,0 0,-2.3e-4 z m 8.49733,0 3.342381,-24.886586 c 0.14414,-1.072267 1.074088,-1.880523 2.163791,-1.880523 l 9.239894,0 c 1.089463,0 2.019651,0.808256 2.163551,1.880523 l 3.342621,24.886586 -20.252238,0 z M 96.422871,87.718469 c -0.07784,0 -0.15375,0.006 -0.229424,0.01479 L 94.698469,76.602276 C 94.3004,73.638515 91.728932,71.403351 88.717113,71.403351 l -9.239894,0 c -3.011819,0 -5.583528,2.235164 -5.981596,5.198925 l -1.494978,11.130979 c -0.07519,-0.0088 -0.151588,-0.01479 -0.229424,-0.01479 l -18.488438,0 c -2.336279,0 -4.237014,-1.886963 -4.237014,-4.206314 l 0,-36.709193 c 0,-2.319351 1.900735,-4.206314 4.237014,-4.206314 l 61.628527,0 c 2.33628,0 4.23701,1.886963 4.23701,4.206314 l 0,36.709193 c 0,2.319351 -1.90073,4.206314 -4.23701,4.206314 l -18.488439,0 z" />
      <path
         id="path869"
         d="m 84.097166,55.087996 c -3.327486,0 -6.034447,2.687347 -6.034447,5.990724 0,3.303376 2.706961,5.990724 6.034447,5.990724 3.327486,0 6.034447,-2.687348 6.034447,-5.990724 0,-3.303138 -2.707201,-5.990724 -6.034447,-5.990724 z m 0,8.157678 c -1.203574,0 -2.18277,-0.972101 -2.18277,-2.166954 0,-1.194854 0.979196,-2.166954 2.18277,-2.166954 1.203574,0 2.182769,0.9721 2.182769,2.166954 -2.4e-4,1.194853 -0.979195,2.166954 -2.182769,2.166954 z" />
    </g>
  </g>
</svg>
