<?xml version="1.0" encoding="UTF-8" standalone="no"?>
<svg
   xmlns:dc="http://purl.org/dc/elements/1.1/"
   xmlns:cc="http://creativecommons.org/ns#"
   xmlns:rdf="http://www.w3.org/1999/02/22-rdf-syntax-ns#"
   xmlns:svg="http://www.w3.org/2000/svg"
   xmlns="http://www.w3.org/2000/svg"
   version="1.1"
   id="svg6333"
   viewBox="0 0 81.72 98"
   height="27.657778mm"
   width="23.0632mm">
  <defs
     id="defs6335" />
  <metadata
     id="metadata6338">
    <rdf:RDF>
      <cc:Work
         rdf:about="">
        <dc:format>image/svg+xml</dc:format>
        <dc:type
           rdf:resource="http://purl.org/dc/dcmitype/StillImage" />
        <dc:title></dc:title>
      </cc:Work>
    </rdf:RDF>
  </metadata>
  <g
     transform="translate(3163.7171,702.35208)"
     id="layer1">
    <g
       transform="translate(-3163.8571,-702.35208)"
       id="user-(9)"
       style="fill:#4f2b73;fill-rule:nonzero">
      <path
         id="path4432"
         d="m 30.08,53.8 0,-15.42 c 0,-0.66 -0.34,-1.28 -0.88,-1.64 -1.46,-0.98 -2.34,-2.6 -2.34,-4.36 l 0,-16 c 0,-6.86 5.58,-12.42 12.42,-12.42 l 3.44,0 c 6.86,0 12.42,5.58 12.42,12.42 l 0,16 c 0,1.76 -0.88,3.38 -2.34,4.36 -0.56,0.36 -0.88,0.98 -0.88,1.64 l 0,15.42 c 0,1.04 0.58,1.96 1.5,2.42 2.02,0.98 12.62,6.34 22.38,14.36 1.34,1.1 2.1,2.72 2.1,4.46 l 0,10.96 c 0,1.1 0.88,1.98 1.98,1.98 1.1,0 1.98,-0.88 1.98,-1.98 l 0,-10.96 c 0,-2.92 -1.3,-5.66 -3.54,-7.52 C 69.06,59.92 59.1,54.64 55.88,53.02 l 0,-13.66 c 2.04,-1.74 3.22,-4.28 3.22,-6.98 l 0,-16 C 59.1,7.34 51.74,0 42.72,0 L 39.28,0 C 30.24,0 22.9,7.36 22.9,16.38 l 0,16 c 0,2.7 1.18,5.24 3.22,6.98 l 0,13.66 C 22.9,54.64 12.94,59.92 3.68,67.52 1.42,69.36 0.14,72.1 0.14,75.04 l 0,10.96 c 0,1.1 0.88,1.98 1.98,1.98 1.1,0 1.98,-0.88 1.98,-1.98 l 0,-10.96 c 0,-1.74 0.76,-3.36 2.1,-4.46 9.76,-8.02 20.36,-13.36 22.38,-14.36 0.92,-0.46 1.5,-1.38 1.5,-2.42 z" />
      <path
         id="path4434"
         d="m 52.54,76.44 -16.78,16.78 -6.3,-6.3 c -0.78,-0.78 -2.02,-0.78 -2.8,0 -0.78,0.78 -0.78,2.02 0,2.8 l 7.7,7.7 c 0.38,0.38 0.9,0.58 1.4,0.58 0.5,0 1.02,-0.2 1.4,-0.58 L 55.34,79.24 c 0.78,-0.78 0.78,-2.02 0,-2.8 -0.78,-0.76 -2.02,-0.76 -2.8,0 z" />
    </g>
  </g>
</svg>
