<?xml version="1.0" encoding="UTF-8" standalone="no"?>
<svg
   xmlns:dc="http://purl.org/dc/elements/1.1/"
   xmlns:cc="http://creativecommons.org/ns#"
   xmlns:rdf="http://www.w3.org/1999/02/22-rdf-syntax-ns#"
   xmlns:svg="http://www.w3.org/2000/svg"
   xmlns="http://www.w3.org/2000/svg"
   version="1.1"
   id="svg6921"
   viewBox="0 0 97.900409 95.739463"
   height="27.019804mm"
   width="27.629671mm">
  <defs
     id="defs6923" />
  <metadata
     id="metadata6926">
    <rdf:RDF>
      <cc:Work
         rdf:about="">
        <dc:format>image/svg+xml</dc:format>
        <dc:type
           rdf:resource="http://purl.org/dc/dcmitype/StillImage" />
        <dc:title></dc:title>
      </cc:Work>
    </rdf:RDF>
  </metadata>
  <g
     transform="translate(2288.9502,172.65039)"
     id="layer1">
    <g
       transform="translate(-2288.9502,-172.83049)"
       id="chat-(3)"
       style="fill:#4f2b73;fill-rule:nonzero">
      <path
         id="path4437"
         d="m 12.947155,76.420191 6.632926,0 0,17.523493 c 0,0.798337 0.478049,1.496882 1.195122,1.816216 0.258943,0.09979 0.517886,0.159668 0.776829,0.159668 0.497968,0 0.995935,-0.199585 1.374391,-0.558836 l 19.739431,-18.940541 37.008943,0 c 5.258536,0 10.09878,-3.313097 12.050813,-8.242827 0.398374,-1.01788 -0.09959,-2.155509 -1.115447,-2.554678 -1.015854,-0.399168 -2.15122,0.09979 -2.549594,1.117672 -1.354471,3.432848 -4.720732,5.728066 -8.385772,5.728066 l -37.805691,0 c -0.517887,0 -0.995935,0.199584 -1.354472,0.558836 l -16.970732,16.286071 0,-14.849065 c 0,-1.097713 -0.876422,-1.975884 -1.971951,-1.975884 l -8.624796,0 c -4.9597566,0 -9.0032526,-4.051559 -9.0032526,-9.021205 l 0,-40.814969 c 0,-4.969647 4.043496,-9.021206 9.0032526,-9.021206 l 40.913008,0 c 1.095528,0 1.971951,-0.87817 1.971951,-1.975883 0,-1.097714 -0.876423,-1.9758841 -1.971951,-1.9758841 l -40.913008,0 C 5.7963415,9.6792349 0,15.507094 0,22.652208 l 0,40.79501 c 0,7.165073 5.7963415,12.972973 12.947155,12.972973 z" />
      <path
         id="path4439"
         d="m 50.952033,24.787759 c -0.717074,-0.938046 -1.832521,-1.556757 -3.107318,-1.556757 l -9.401626,0 c -2.151219,0 -3.884146,1.756341 -3.884146,3.891892 l 0,28.760083 c 0,2.155509 1.752846,3.891892 3.884146,3.891892 l 9.401626,0 c 1.015854,0 1.932114,-0.399168 2.629269,-1.037838 1.653252,1.636591 3.923983,2.674428 6.43374,2.674428 l 26.651219,0 c 6.134959,0 10.039024,-3.233264 10.736179,-8.84158 l 3.585366,-22.812474 c 0.01992,-0.09979 0.01992,-0.199584 0.01992,-0.299376 0,-5.029522 -4.083334,-9.120998 -9.102846,-9.120998 l -13.046748,0 0,-9.320582 c 0,-4.2511434 -1.254878,-7.3247401 -3.724797,-9.1409563 C 68.121951,-0.99851975 62.78374,0.63807069 62.544715,0.69794595 61.728049,0.9574054 61.170325,1.7158254 61.170325,2.5740374 l 0,10.9172556 c 0,8.282744 -9.660569,11.11684 -10.058943,11.236591 -0.07968,0.01996 -0.119512,0.03992 -0.159349,0.05988 z m -3.167074,31.055301 -9.302032,0 0,-28.660291 9.302032,0 0,28.660291 z m 3.943903,-27.243243 c 0.139431,0 0.278862,-0.01996 0.418292,-0.05988 0.537805,-0.139709 12.947155,-3.752183 12.947155,-15.048649 l 0,-9.3006236 c 1.274797,-0.1596673 3.186992,-0.1596673 4.581301,0.8781705 1.394309,1.0378378 2.111382,3.0336799 2.111382,5.9476091 l 0,11.276507 c 0,1.097713 0.876423,1.975884 1.971951,1.975884 l 15.018699,0 c 2.808537,0 5.079269,2.235343 5.158943,5.029522 L 90.371138,51.99108 c 0,0.01996 0,0.03992 0,0.05988 -0.438211,3.592515 -2.728862,5.408731 -6.832114,5.408731 l -26.6313,0 c -2.848374,0 -5.158943,-2.315176 -5.158943,-5.169231 l 0,-23.690644 -0.01992,0 z" />
    </g>
  </g>
</svg>
