<?xml version="1.0" encoding="UTF-8"?>
<svg width="1440px" height="9109px" viewBox="0 0 1440 9109" version="1.1" xmlns="http://www.w3.org/2000/svg" xmlns:xlink="http://www.w3.org/1999/xlink" style="background: #FFFFFF;">
    <!-- Generator: Sketch 49.1 (51147) - http://www.bohemiancoding.com/sketch -->
    <title>CHATBOTTECH LANDING PAGE@2x</title>
    <desc>Created with Sketch.</desc>
    <defs>
        <rect id="path-1" x="0" y="0" width="1440" height="431"></rect>
        <linearGradient x1="50%" y1="100%" x2="-27.1635812%" y2="-118.095962%" id="linearGradient-3">
            <stop stop-color="#4F2B73" offset="0%"></stop>
            <stop stop-color="#C996FF" offset="100%"></stop>
        </linearGradient>
        <rect id="path-4" x="0" y="0" width="1920" height="1159"></rect>
        <rect id="path-6" x="0" y="98" width="380" height="300" rx="8"></rect>
        <filter x="-7.6%" y="-9.7%" width="116.3%" height="120.7%" filterUnits="objectBoundingBox" id="filter-7">
            <feOffset dx="2" dy="2" in="SourceAlpha" result="shadowOffsetOuter1"></feOffset>
            <feGaussianBlur stdDeviation="10" in="shadowOffsetOuter1" result="shadowBlurOuter1"></feGaussianBlur>
            <feColorMatrix values="0 0 0 0 0   0 0 0 0 0   0 0 0 0 0  0 0 0 0.0574048913 0" type="matrix" in="shadowBlurOuter1"></feColorMatrix>
        </filter>
        <rect id="path-8" x="400" y="98" width="380" height="300" rx="8"></rect>
        <filter x="-7.6%" y="-9.7%" width="116.3%" height="120.7%" filterUnits="objectBoundingBox" id="filter-9">
            <feOffset dx="2" dy="2" in="SourceAlpha" result="shadowOffsetOuter1"></feOffset>
            <feGaussianBlur stdDeviation="10" in="shadowOffsetOuter1" result="shadowBlurOuter1"></feGaussianBlur>
            <feColorMatrix values="0 0 0 0 0   0 0 0 0 0   0 0 0 0 0  0 0 0 0.0574048913 0" type="matrix" in="shadowBlurOuter1"></feColorMatrix>
        </filter>
        <rect id="path-10" x="801" y="98" width="380" height="300" rx="8"></rect>
        <filter x="-7.6%" y="-9.7%" width="116.3%" height="120.7%" filterUnits="objectBoundingBox" id="filter-11">
            <feOffset dx="2" dy="2" in="SourceAlpha" result="shadowOffsetOuter1"></feOffset>
            <feGaussianBlur stdDeviation="10" in="shadowOffsetOuter1" result="shadowBlurOuter1"></feGaussianBlur>
            <feColorMatrix values="0 0 0 0 0   0 0 0 0 0   0 0 0 0 0  0 0 0 0.0574048913 0" type="matrix" in="shadowBlurOuter1"></feColorMatrix>
        </filter>
        <rect id="path-12" x="130" y="5439" width="380" height="380" rx="8"></rect>
        <filter x="-7.6%" y="-7.6%" width="116.3%" height="116.3%" filterUnits="objectBoundingBox" id="filter-13">
            <feOffset dx="2" dy="2" in="SourceAlpha" result="shadowOffsetOuter1"></feOffset>
            <feGaussianBlur stdDeviation="10" in="shadowOffsetOuter1" result="shadowBlurOuter1"></feGaussianBlur>
            <feColorMatrix values="0 0 0 0 0   0 0 0 0 0   0 0 0 0 0  0 0 0 0.0574048913 0" type="matrix" in="shadowBlurOuter1"></feColorMatrix>
        </filter>
        <rect id="path-14" x="530" y="5439" width="380" height="380" rx="8"></rect>
        <filter x="-7.6%" y="-7.6%" width="116.3%" height="116.3%" filterUnits="objectBoundingBox" id="filter-15">
            <feOffset dx="2" dy="2" in="SourceAlpha" result="shadowOffsetOuter1"></feOffset>
            <feGaussianBlur stdDeviation="10" in="shadowOffsetOuter1" result="shadowBlurOuter1"></feGaussianBlur>
            <feColorMatrix values="0 0 0 0 0   0 0 0 0 0   0 0 0 0 0  0 0 0 0.0574048913 0" type="matrix" in="shadowBlurOuter1"></feColorMatrix>
        </filter>
        <rect id="path-16" x="931" y="5439" width="380" height="380" rx="8"></rect>
        <filter x="-7.6%" y="-7.6%" width="116.3%" height="116.3%" filterUnits="objectBoundingBox" id="filter-17">
            <feOffset dx="2" dy="2" in="SourceAlpha" result="shadowOffsetOuter1"></feOffset>
            <feGaussianBlur stdDeviation="10" in="shadowOffsetOuter1" result="shadowBlurOuter1"></feGaussianBlur>
            <feColorMatrix values="0 0 0 0 0   0 0 0 0 0   0 0 0 0 0  0 0 0 0.0574048913 0" type="matrix" in="shadowBlurOuter1"></feColorMatrix>
        </filter>
        <rect id="path-18" x="0" y="0" width="380" height="301" rx="8"></rect>
        <filter x="-7.6%" y="-9.6%" width="116.3%" height="120.6%" filterUnits="objectBoundingBox" id="filter-20">
            <feOffset dx="2" dy="2" in="SourceAlpha" result="shadowOffsetOuter1"></feOffset>
            <feGaussianBlur stdDeviation="10" in="shadowOffsetOuter1" result="shadowBlurOuter1"></feGaussianBlur>
            <feColorMatrix values="0 0 0 0 0   0 0 0 0 0   0 0 0 0 0  0 0 0 0.0574048913 0" type="matrix" in="shadowBlurOuter1"></feColorMatrix>
        </filter>
        <rect id="path-21" x="0" y="0" width="380" height="301" rx="8"></rect>
        <filter x="-7.6%" y="-9.6%" width="116.3%" height="120.6%" filterUnits="objectBoundingBox" id="filter-23">
            <feOffset dx="2" dy="2" in="SourceAlpha" result="shadowOffsetOuter1"></feOffset>
            <feGaussianBlur stdDeviation="10" in="shadowOffsetOuter1" result="shadowBlurOuter1"></feGaussianBlur>
            <feColorMatrix values="0 0 0 0 0   0 0 0 0 0   0 0 0 0 0  0 0 0 0.0574048913 0" type="matrix" in="shadowBlurOuter1"></feColorMatrix>
        </filter>
        <text id="text-24" font-family="Avenir-Heavy, Avenir" font-size="23" font-weight="600" fill="#FFFFFF">
            <tspan x="159.73" y="8341">Read reviews of chatbot tools </tspan>
            <tspan x="198.9105" y="8372">for non-technical users</tspan>
        </text>
        <filter x="-2.2%" y="-8.1%" width="104.3%" height="122.6%" filterUnits="objectBoundingBox" id="filter-25">
            <feOffset dx="0" dy="2" in="SourceAlpha" result="shadowOffsetOuter1"></feOffset>
            <feGaussianBlur stdDeviation="2" in="shadowOffsetOuter1" result="shadowBlurOuter1"></feGaussianBlur>
            <feColorMatrix values="0 0 0 0 0   0 0 0 0 0   0 0 0 0 0  0 0 0 0.299847147 0" type="matrix" in="shadowBlurOuter1"></feColorMatrix>
        </filter>
        <text id="text-26" font-family="Avenir-Heavy, Avenir" font-size="23" font-weight="600" fill="#FFFFFF">
            <tspan x="589.7335" y="8341">Read reviews of chatbot </tspan>
            <tspan x="611.71" y="8372">tools for developers</tspan>
        </text>
        <filter x="-2.5%" y="-8.1%" width="104.9%" height="122.6%" filterUnits="objectBoundingBox" id="filter-27">
            <feOffset dx="0" dy="2" in="SourceAlpha" result="shadowOffsetOuter1"></feOffset>
            <feGaussianBlur stdDeviation="2" in="shadowOffsetOuter1" result="shadowBlurOuter1"></feGaussianBlur>
            <feColorMatrix values="0 0 0 0 0   0 0 0 0 0   0 0 0 0 0  0 0 0 0.299847147 0" type="matrix" in="shadowBlurOuter1"></feColorMatrix>
        </filter>
        <rect id="path-28" x="0" y="0" width="380" height="301" rx="8"></rect>
        <filter x="-7.6%" y="-9.6%" width="116.3%" height="120.6%" filterUnits="objectBoundingBox" id="filter-30">
            <feOffset dx="2" dy="2" in="SourceAlpha" result="shadowOffsetOuter1"></feOffset>
            <feGaussianBlur stdDeviation="10" in="shadowOffsetOuter1" result="shadowBlurOuter1"></feGaussianBlur>
            <feColorMatrix values="0 0 0 0 0   0 0 0 0 0   0 0 0 0 0  0 0 0 0.0574048913 0" type="matrix" in="shadowBlurOuter1"></feColorMatrix>
        </filter>
        <text id="text-31" font-family="Avenir-Heavy, Avenir" font-size="23" font-weight="600" fill="#FFFFFF">
            <tspan x="977.164" y="8341">We can build a chatbot for </tspan>
            <tspan x="969.1025" y="8372">you - read about our service</tspan>
        </text>
        <filter x="-2.2%" y="-8.1%" width="104.3%" height="122.6%" filterUnits="objectBoundingBox" id="filter-32">
            <feOffset dx="0" dy="2" in="SourceAlpha" result="shadowOffsetOuter1"></feOffset>
            <feGaussianBlur stdDeviation="2" in="shadowOffsetOuter1" result="shadowBlurOuter1"></feGaussianBlur>
            <feColorMatrix values="0 0 0 0 0   0 0 0 0 0   0 0 0 0 0  0 0 0 0.299847147 0" type="matrix" in="shadowBlurOuter1"></feColorMatrix>
        </filter>
        <linearGradient x1="11.1057921%" y1="0%" x2="70.5684246%" y2="102.317013%" id="linearGradient-33">
            <stop stop-color="#E9A1FF" offset="0%"></stop>
            <stop stop-color="#FF687B" offset="100%"></stop>
        </linearGradient>
        <rect id="path-34" x="400" y="83" width="380" height="431" rx="8"></rect>
        <filter x="-7.6%" y="-6.7%" width="116.3%" height="114.4%" filterUnits="objectBoundingBox" id="filter-35">
            <feOffset dx="2" dy="2" in="SourceAlpha" result="shadowOffsetOuter1"></feOffset>
            <feGaussianBlur stdDeviation="10" in="shadowOffsetOuter1" result="shadowBlurOuter1"></feGaussianBlur>
            <feColorMatrix values="0 0 0 0 0   0 0 0 0 0   0 0 0 0 0  0 0 0 0.0574048913 0" type="matrix" in="shadowBlurOuter1"></feColorMatrix>
        </filter>
        <linearGradient x1="3.97596483%" y1="-18.7658054%" x2="66.0752092%" y2="100%" id="linearGradient-36">
            <stop stop-color="#80F3D4" offset="0%"></stop>
            <stop stop-color="#4A90E2" offset="100%"></stop>
        </linearGradient>
        <rect id="path-37" x="0" y="83" width="380" height="431" rx="8"></rect>
        <filter x="-7.6%" y="-6.7%" width="116.3%" height="114.4%" filterUnits="objectBoundingBox" id="filter-38">
            <feOffset dx="2" dy="2" in="SourceAlpha" result="shadowOffsetOuter1"></feOffset>
            <feGaussianBlur stdDeviation="10" in="shadowOffsetOuter1" result="shadowBlurOuter1"></feGaussianBlur>
            <feColorMatrix values="0 0 0 0 0   0 0 0 0 0   0 0 0 0 0  0 0 0 0.0574048913 0" type="matrix" in="shadowBlurOuter1"></feColorMatrix>
        </filter>
        <linearGradient x1="16.5747761%" y1="0%" x2="60.0344339%" y2="100%" id="linearGradient-39">
            <stop stop-color="#F98C8C" offset="0%"></stop>
            <stop stop-color="#F0B553" offset="100%"></stop>
        </linearGradient>
        <rect id="path-40" x="800" y="83" width="380" height="431" rx="8"></rect>
        <filter x="-7.6%" y="-6.7%" width="116.3%" height="114.4%" filterUnits="objectBoundingBox" id="filter-41">
            <feOffset dx="2" dy="2" in="SourceAlpha" result="shadowOffsetOuter1"></feOffset>
            <feGaussianBlur stdDeviation="10" in="shadowOffsetOuter1" result="shadowBlurOuter1"></feGaussianBlur>
            <feColorMatrix values="0 0 0 0 0   0 0 0 0 0   0 0 0 0 0  0 0 0 0.0574048913 0" type="matrix" in="shadowBlurOuter1"></feColorMatrix>
        </filter>
        <circle id="path-42" cx="29.6" cy="29.6" r="29.6"></circle>
        <circle id="path-44" cx="29.6" cy="29.6" r="29.6"></circle>
        <circle id="path-46" cx="29.6" cy="29.6" r="29.6"></circle>
        <linearGradient x1="78.6679328%" y1="-62.7142176%" x2="61.2989244%" y2="143.639997%" id="linearGradient-48">
            <stop stop-color="#6800A6" offset="0%"></stop>
            <stop stop-color="#00016D" offset="100%"></stop>
        </linearGradient>
        <rect id="path-49" x="0" y="221" width="380" height="431" rx="8"></rect>
        <filter x="-7.6%" y="-6.7%" width="116.3%" height="114.4%" filterUnits="objectBoundingBox" id="filter-50">
            <feOffset dx="2" dy="2" in="SourceAlpha" result="shadowOffsetOuter1"></feOffset>
            <feGaussianBlur stdDeviation="10" in="shadowOffsetOuter1" result="shadowBlurOuter1"></feGaussianBlur>
            <feColorMatrix values="0 0 0 0 0   0 0 0 0 0   0 0 0 0 0  0 0 0 0.0574048913 0" type="matrix" in="shadowBlurOuter1"></feColorMatrix>
        </filter>
        <rect id="path-51" x="400" y="221" width="380" height="431" rx="8"></rect>
        <filter x="-7.6%" y="-6.7%" width="116.3%" height="114.4%" filterUnits="objectBoundingBox" id="filter-52">
            <feOffset dx="2" dy="2" in="SourceAlpha" result="shadowOffsetOuter1"></feOffset>
            <feGaussianBlur stdDeviation="10" in="shadowOffsetOuter1" result="shadowBlurOuter1"></feGaussianBlur>
            <feColorMatrix values="0 0 0 0 0   0 0 0 0 0   0 0 0 0 0  0 0 0 0.0574048913 0" type="matrix" in="shadowBlurOuter1"></feColorMatrix>
        </filter>
        <rect id="path-53" x="801" y="221" width="380" height="431" rx="8"></rect>
        <filter x="-7.6%" y="-6.7%" width="116.3%" height="114.4%" filterUnits="objectBoundingBox" id="filter-54">
            <feOffset dx="2" dy="2" in="SourceAlpha" result="shadowOffsetOuter1"></feOffset>
            <feGaussianBlur stdDeviation="10" in="shadowOffsetOuter1" result="shadowBlurOuter1"></feGaussianBlur>
            <feColorMatrix values="0 0 0 0 0   0 0 0 0 0   0 0 0 0 0  0 0 0 0.0574048913 0" type="matrix" in="shadowBlurOuter1"></feColorMatrix>
        </filter>
        <rect x="0" y="8.03278689" width="105.553191" height="33.7377049" id="rect-55"></rect>
        <rect x="132.741135" y="5.62295082" width="142.336879" height="28.1147541" id="rect-56"></rect>
        <rect x="307.06383" y="4.81967213" width="159.929078" height="34.5409836" id="rect-57"></rect>
        <rect x="495.780142" y="10.442623" width="127.943262" height="38.557377" id="rect-58"></rect>
        <rect x="658.108156" y="0" width="79.964539" height="35.3442623" id="rect-59"></rect>
        <rect x="775.656028" y="2.40983607" width="126.343972" height="36.9508197" id="rect-60"></rect>
    </defs>
    <g id="CHATBOTTECH-LANDING-PAGE" stroke="none" stroke-width="1" fill="none" fill-rule="evenodd">
        <g id="Oval-3" transform="translate(0.000000, 8678.000000)">
            <mask id="mask-2" fill="white">
                <use xlink:href="#path-1"></use>
            </mask>
            <use id="Mask" fill="#321B49" xlink:href="#path-1"></use>
            <ellipse fill="#FFFFFF" opacity="0.0444406703" mask="url(#mask-2)" cx="1249.5" cy="-329" rx="529.5" ry="515"></ellipse>
            <ellipse fill="#FFFFFF" opacity="0.0444406703" mask="url(#mask-2)" cx="497.5" cy="241" rx="566.5" ry="551"></ellipse>
        </g>
        <path d="M-122,8367.16905 C103.306663,8237.20175 352.231108,8208.6872 624.773336,8281.62541 C1033.58668,8391.03273 1577.74601,8072.26731 1624.582,7950.31056 C1655.806,7869.00606 1655.806,8111.51833 1624.582,8677.84737 L-109.097563,8677.84737 L-122,8367.16905 Z" id="Path-3" fill="#4F2B73" opacity="0.0444406703"></path>
        <g id="Path-3" transform="translate(-240.000000, 0.000000)">
            <mask id="mask-5" fill="white">
                <use xlink:href="#path-4"></use>
            </mask>
            <use id="Mask" fill="url(#linearGradient-3)" xlink:href="#path-4"></use>
            <path d="M150,848.169052 C375.306663,718.201746 624.231108,689.6872 896.773336,762.625413 C1305.58668,872.032734 1849.74601,553.267312 1896.582,431.310561 C1927.806,350.00606 1927.806,592.518331 1896.582,1158.84737 L162.902437,1158.84737 L150,848.169052 Z" fill="#FFFFFF" opacity="0.0444406703" mask="url(#mask-5)"></path>
            <ellipse id="Oval-3" fill="#FFFFFF" opacity="0.0444406703" mask="url(#mask-5)" cx="1428.5" cy="-285" rx="529.5" ry="515"></ellipse>
        </g>
        <text id="Non-Technical" font-family="Avenir-Roman, Avenir" font-size="18" font-weight="normal" fill="#FFFFFF">
            <tspan x="917.3" y="84">Non Technical</tspan>
        </text>
        <text id="About-the-author" font-family="Avenir-Medium, Avenir" font-size="36" font-weight="400" fill="#37006D">
            <tspan x="579.416" y="3148">About the author</tspan>
        </text>
        <text id="What-is-a-chatbot?" font-family="Avenir-Medium, Avenir" font-size="36" font-weight="400" fill="#37006D">
            <tspan x="130.472" y="3842">What is a chatbot?</tspan>
        </text>
        <text id="Why-should-I-want-a" font-family="Avenir-Medium, Avenir" font-size="36" font-weight="400" fill="#37006D">
            <tspan x="827.084" y="5131">Why should I want a chatbot?</tspan>
        </text>
        <text id="Chatbots-for-Marketi" font-family="Avenir-Medium, Avenir" font-size="36" font-weight="400" fill="#37006D">
            <tspan x="130.476" y="6084">Chatbots for Marketing</tspan>
        </text>
        <text id="Who-can-build-a-chat" font-family="Avenir-Medium, Avenir" font-size="36" font-weight="400" fill="#37006D">
            <tspan x="512.84" y="6781">Who can build a chatbot?</tspan>
        </text>
        <text id="What-next?" font-family="Avenir-Medium, Avenir" font-size="36" font-weight="400" fill="#37006D">
            <tspan x="627.304" y="8155">What next?</tspan>
        </text>
        <text id="Build-Amazing-Chatbo" font-family="Avenir-Medium, Avenir" font-size="36" font-weight="400" fill="#FFFFFF">
            <tspan x="518.936" y="8808">Build Amazing Chatbots!</tspan>
        </text>
        <text id="Impartial-reviews-of" font-family="Avenir-Light, Avenir" font-size="11" font-weight="300" fill="#FFFFFF">
            <tspan x="199" y="101">Impartial reviews of chatbot creation tools</tspan>
        </text>
        <g id="Group-5" transform="translate(130.000000, 1660.000000)">
            <g id="Rectangle-2">
                <use fill="black" fill-opacity="1" filter="url(#filter-7)" xlink:href="#path-6"></use>
                <use fill="#FFFFFF" fill-rule="evenodd" xlink:href="#path-6"></use>
            </g>
            <g id="piggy-bank-(1)" transform="translate(151.000000, 152.000000)" fill="#4F2B73" fill-rule="nonzero">
                <path d="M60.2638,84.6272912 L60.7638,84.1881874 C60.8438,84.1283096 60.9038,84.0684318 60.9638,83.9885947 C61.2238,83.6892057 67.0638,76.9629328 69.2838,71.7934827 L70.3438,71.7934827 C73.3638,71.7934827 75.8238,69.3384929 75.8238,66.3246436 L75.8238,57.6822811 C75.8238,54.6684318 73.3638,52.213442 70.3438,52.213442 L69.1638,52.213442 C67.3438,47.4830957 64.2438,43.2118126 60.1238,39.7389002 C59.5238,37.6032587 59.9638,35.3279022 61.4638,32.9527495 C62.3038,31.6154786 62.3038,29.9389002 61.4438,28.6016293 C60.5838,27.2643585 59.0838,26.5458248 57.5038,26.7454175 C51.7238,27.4639511 48.2638,30.0786151 46.2438,32.5136456 C44.3438,31.9947047 42.3838,31.5955193 40.4038,31.3759674 C39.3238,31.2562118 38.3238,32.014664 38.2038,33.1124236 C38.0838,34.190224 38.8438,35.1881874 39.9438,35.307943 C42.1438,35.5674134 44.3238,36.0464358 46.4038,36.7050916 C47.2438,36.9645621 48.1438,36.6452138 48.6438,35.9266802 C50.0038,33.9107943 52.7438,31.3560081 57.9838,30.6973523 C58.0238,30.6973523 58.0638,30.6973523 58.1038,30.7572301 C58.1438,30.8171079 58.1238,30.8570265 58.1038,30.8769857 C56.0238,34.190224 55.4038,37.6431772 56.3238,40.8765784 C56.3438,41.4553971 56.6038,41.9942974 57.0638,42.3535642 C61.2838,45.7466395 64.3438,50.0578411 65.9038,54.8281059 C66.1638,55.6464358 66.9438,56.185336 67.7838,56.185336 L70.3438,56.185336 C71.1838,56.185336 71.8638,56.8639511 71.8638,57.7022403 L71.8638,66.3446029 C71.8638,67.1828921 71.1838,67.8615071 70.3438,67.8615071 L67.9238,67.8615071 C67.0638,67.8615071 66.2838,68.4203666 66.0238,69.2586558 C64.9038,72.9112016 59.9838,79.0985743 58.0638,81.314053 L57.6238,81.693279 C53.5038,85.4057026 53.0838,89.7967413 53.0638,91.114053 L53.0638,93.888391 L41.6438,93.888391 L41.6438,91.2138493 C41.6438,90.6549898 41.4038,90.1160896 40.9838,89.7368635 C40.5638,89.3576375 40.0038,89.1780041 39.4438,89.2378819 C36.5238,89.5372709 33.5838,89.4973523 30.7438,89.1181263 C30.1838,89.0382892 29.6038,89.2179226 29.1838,89.5971487 C28.7438,89.9763747 28.5038,90.5152749 28.5038,91.0940937 L28.5038,93.8684318 L17.0838,93.8684318 L17.0838,93.0900204 C17.0838,93.0700611 17.0838,93.0301426 17.0838,93.0101833 C16.9838,90.9144603 16.3238,85.6052953 12.1638,81.3340122 C10.2038,79.3181263 8.4438,76.6435845 6.9238,73.4101833 C6.9038,73.390224 6.9038,73.3702648 6.8838,73.3303462 C5.9838,71.6138493 5.3038,69.797556 4.8438,67.8814664 L4.8238,67.8016293 C4.8238,67.7816701 4.8038,67.7617108 4.8038,67.7417515 C4.0838,65.3466395 4.1638,62.3327902 4.1638,62.312831 C4.1638,62.2928717 4.1638,62.2729124 4.1638,62.2529532 C4.1638,60.9356415 4.2838,59.5983707 4.4838,58.3010183 C4.6638,57.2232179 3.9438,56.2052953 2.8638,56.0256619 C1.7838,55.8460285 0.7638,56.5645621 0.5838,57.6423625 C0.3238,59.1393075 0.2038,60.6761711 0.2038,62.2130346 C0.1838,62.61222 0.1438,65.9653768 1.0038,68.8594705 C1.5238,70.995112 2.3238,73.090835 3.3438,75.0867617 C5.0238,78.7193483 7.0438,81.7331976 9.3038,84.0684318 C12.4838,87.3417515 13.0238,91.4533605 13.1038,93.1299389 L13.1038,93.9482688 C13.1038,94.0281059 13.1038,94.0879837 13.1238,94.2077393 C13.2638,96.2236253 14.9638,97.8203666 16.9838,97.8203666 L28.5638,97.8203666 C30.7038,97.8203666 32.4438,96.0839104 32.4438,93.9482688 L32.4438,93.289613 C34.1838,93.4293279 35.9038,93.4492872 37.6638,93.3694501 L37.6638,93.9482688 C37.6638,96.0839104 39.4038,97.8203666 41.5438,97.8203666 L53.1238,97.8203666 C55.2638,97.8203666 57.0038,96.0839104 57.0038,93.9482688 L57.0038,91.1340122 C57.0438,90.5152749 57.2638,87.3217923 60.2638,84.6272912 Z" id="Shape"></path>
                <path d="M0.3638,38.2020367 C0.3638,47.1637475 7.6638,54.4688391 16.6638,54.4688391 C25.6438,54.4688391 32.9638,47.1837067 32.9638,38.2020367 C32.9638,29.2403259 25.6638,21.9352342 16.6638,21.9352342 C7.6838,21.9352342 0.3638,29.2203666 0.3638,38.2020367 Z M29.0038,38.2020367 C29.0038,44.9881874 23.4638,50.5169043 16.6638,50.5169043 C9.8638,50.5169043 4.3238,44.9881874 4.3238,38.2020367 C4.3238,31.4158859 9.8638,25.887169 16.6638,25.887169 C23.4638,25.887169 29.0038,31.4158859 29.0038,38.2020367 Z" id="Shape"></path>
                <path d="M46.6438,11.3368635 C46.6438,5.08961303 41.5438,0 35.2838,0 C29.0238,0 23.9238,5.08961303 23.9238,11.3368635 C23.9238,17.5841141 29.0238,22.6737271 35.2838,22.6737271 C41.5438,22.6737271 46.6438,17.5841141 46.6438,11.3368635 Z M27.8638,11.3368635 C27.8638,7.26517312 31.1838,3.95193483 35.2638,3.95193483 C39.3438,3.95193483 42.6638,7.26517312 42.6638,11.3368635 C42.6638,15.408554 39.3438,18.7217923 35.2638,18.7217923 C31.1838,18.7217923 27.8638,15.408554 27.8638,11.3368635 Z" id="Shape"></path>
            </g>
            <g id="Rectangle-2">
                <use fill="black" fill-opacity="1" filter="url(#filter-9)" xlink:href="#path-8"></use>
                <use fill="#FFFFFF" fill-rule="evenodd" xlink:href="#path-8"></use>
            </g>
            <g id="Rectangle-2">
                <use fill="black" fill-opacity="1" filter="url(#filter-11)" xlink:href="#path-10"></use>
                <use fill="#FFFFFF" fill-rule="evenodd" xlink:href="#path-10"></use>
            </g>
            <text id="Why-Read-Chatbot-Tec" font-family="Avenir-Medium, Avenir" font-size="36" font-weight="400" fill="#4F2B73">
                <tspan x="318.43" y="36">Why Read Chatbot Tech reviews?</tspan>
            </text>
            <text id="Save-time-and-money." font-family="Avenir-Roman, Avenir" font-size="16" font-weight="normal" fill="#8B8B8B">
                <tspan x="52.636" y="316">Save time and money. Quickly find the </tspan>
                <tspan x="75.268" y="338">chatbot tool that's right for you.</tspan>
            </text>
            <text id="Impartial-and-trustw" font-family="Avenir-Roman, Avenir" font-size="16" font-weight="normal" fill="#8B8B8B">
                <tspan x="433.588" y="316">Impartial and trustworthy reviews. We don't </tspan>
                <tspan x="433.956" y="338">make any money from affiliate links, and we </tspan>
                <tspan x="541.172" y="360">tell it like it is.</tspan>
            </text>
            <text id="Expert-opinion.-Revi" font-family="Avenir-Roman, Avenir" font-size="16" font-weight="normal" fill="#8B8B8B">
                <tspan x="830.54" y="316">Expert opinion. Reviewed by an experienced </tspan>
                <tspan x="920.5" y="338">data scientist with a</tspan>
                <tspan x="851.724" y="360">   PhD in Natural Language Processing.</tspan>
            </text>
            <g id="user-(9)" transform="translate(951.000000, 150.000000)" fill="#4F2B73" fill-rule="nonzero">
                <path d="M30.08,53.8 L30.08,38.38 C30.08,37.72 29.74,37.1 29.2,36.74 C27.74,35.76 26.86,34.14 26.86,32.38 L26.86,16.38 C26.86,9.52 32.44,3.96 39.28,3.96 L42.72,3.96 C49.58,3.96 55.14,9.54 55.14,16.38 L55.14,32.38 C55.14,34.14 54.26,35.76 52.8,36.74 C52.24,37.1 51.92,37.72 51.92,38.38 L51.92,53.8 C51.92,54.84 52.5,55.76 53.42,56.22 C55.44,57.2 66.04,62.56 75.8,70.58 C77.14,71.68 77.9,73.3 77.9,75.04 L77.9,86 C77.9,87.1 78.78,87.98 79.88,87.98 C80.98,87.98 81.86,87.1 81.86,86 L81.86,75.04 C81.86,72.12 80.56,69.38 78.32,67.52 C69.06,59.92 59.1,54.64 55.88,53.02 L55.88,39.36 C57.92,37.62 59.1,35.08 59.1,32.38 L59.1,16.38 C59.1,7.34 51.74,-5.68434189e-14 42.72,-5.68434189e-14 L39.28,-5.68434189e-14 C30.24,-5.68434189e-14 22.9,7.36 22.9,16.38 L22.9,32.38 C22.9,35.08 24.08,37.62 26.12,39.36 L26.12,53.02 C22.9,54.64 12.94,59.92 3.68,67.52 C1.42,69.36 0.14,72.1 0.14,75.04 L0.14,86 C0.14,87.1 1.02,87.98 2.12,87.98 C3.22,87.98 4.1,87.1 4.1,86 L4.1,75.04 C4.1,73.3 4.86,71.68 6.2,70.58 C15.96,62.56 26.56,57.22 28.58,56.22 C29.5,55.76 30.08,54.84 30.08,53.8 Z" id="Shape"></path>
                <path d="M52.54,76.44 L35.76,93.22 L29.46,86.92 C28.68,86.14 27.44,86.14 26.66,86.92 C25.88,87.7 25.88,88.94 26.66,89.72 L34.36,97.42 C34.74,97.8 35.26,98 35.76,98 C36.26,98 36.78,97.8 37.16,97.42 L55.34,79.24 C56.12,78.46 56.12,77.22 55.34,76.44 C54.56,75.68 53.32,75.68 52.54,76.44 Z" id="Shape"></path>
            </g>
            <g id="chat-(3)" transform="translate(541.000000, 154.000000)" fill="#4F2B73" fill-rule="nonzero">
                <path d="M12.9471545,76.4201913 L19.5800813,76.4201913 L19.5800813,93.943684 C19.5800813,94.7420208 20.0581301,95.4405655 20.7752033,95.7599002 C21.0341463,95.8596923 21.2930894,95.9195676 21.5520325,95.9195676 C22.05,95.9195676 22.5479675,95.7199834 22.9264228,95.3607318 L42.6658537,76.4201913 L79.6747967,76.4201913 C84.9333333,76.4201913 89.7735772,73.1070936 91.7256098,68.1773638 C92.1239837,67.1594844 91.6260163,66.0218545 90.6101626,65.6226861 C89.5943089,65.2235177 88.4589431,65.7224782 88.0605691,66.7403576 C86.7060976,70.1732058 83.3398374,72.4684241 79.6747967,72.4684241 L41.8691057,72.4684241 C41.3512195,72.4684241 40.8731707,72.6680083 40.5146341,73.0272599 L23.5439024,89.3133306 L23.5439024,74.4642661 C23.5439024,73.366553 22.6674797,72.4883825 21.5719512,72.4883825 L12.9471545,72.4883825 C7.98739837,72.4883825 3.94390244,68.4368233 3.94390244,63.4671767 L3.94390244,22.6522079 C3.94390244,17.6825613 7.98739837,13.6310021 12.9471545,13.6310021 L53.8601626,13.6310021 C54.9556911,13.6310021 55.8321138,12.7528316 55.8321138,11.6551185 C55.8321138,10.5574054 54.9556911,9.67923493 53.8601626,9.67923493 L12.9471545,9.67923493 C5.79634146,9.67923493 0,15.5070936 0,22.6522079 L0,63.4472183 C0,70.6122911 5.79634146,76.4201913 12.9471545,76.4201913 Z" id="Shape"></path>
                <path d="M50.9520325,24.7877588 C50.2349593,23.8497131 49.1195122,23.2310021 47.8447154,23.2310021 L38.4430894,23.2310021 C36.2918699,23.2310021 34.5589431,24.987343 34.5589431,27.122894 L34.5589431,55.8829771 C34.5589431,58.0384865 36.3117886,59.774869 38.4430894,59.774869 L47.8447154,59.774869 C48.8605691,59.774869 49.7768293,59.3757006 50.4739837,58.7370312 C52.1272358,60.3736216 54.3979675,61.4114595 56.9077236,61.4114595 L83.5589431,61.4114595 C89.6939024,61.4114595 93.5979675,58.1781954 94.295122,52.5698794 L97.8804878,29.7574054 C97.9004065,29.6576133 97.9004065,29.5578212 97.9004065,29.4580291 C97.9004065,24.4285073 93.8170732,20.3370312 88.797561,20.3370312 L75.750813,20.3370312 L75.750813,11.0164491 C75.750813,6.76530561 74.495935,3.69170894 72.0260163,1.87549272 C68.1219512,-0.998519751 62.7837398,0.638070686 62.5447154,0.697945946 C61.7280488,0.957405405 61.1703252,1.71582536 61.1703252,2.57403742 L61.1703252,13.4912931 C61.1703252,21.7740374 51.5097561,24.6081331 51.1113821,24.7278836 C51.0317073,24.747842 50.9918699,24.7678004 50.9520325,24.7877588 Z M47.7849593,55.8430603 L38.4829268,55.8430603 L38.4829268,27.1827692 L47.7849593,27.1827692 L47.7849593,55.8430603 Z M51.7288618,28.599817 C51.8682927,28.599817 52.0077236,28.5798586 52.1471545,28.5399418 C52.6849593,28.4002328 65.0943089,24.7877588 65.0943089,13.4912931 L65.0943089,4.19066944 C66.3691057,4.03100208 68.2813008,4.03100208 69.6756098,5.06883992 C71.0699187,6.10667775 71.7869919,8.10251975 71.7869919,11.0164491 L71.7869919,22.2929563 C71.7869919,23.3906694 72.6634146,24.2688399 73.7589431,24.2688399 L88.7776423,24.2688399 C91.5861789,24.2688399 93.8569106,26.504183 93.9365854,29.2983617 L90.3711382,51.9910852 C90.3711382,52.0110437 90.3711382,52.0310021 90.3711382,52.0509605 C89.9329268,55.6434761 87.6422764,57.4596923 83.5390244,57.4596923 L56.9077236,57.4596923 C54.0593496,57.4596923 51.7487805,55.1445156 51.7487805,52.2904615 L51.7487805,28.599817 L51.7288618,28.599817 Z" id="Shape"></path>
            </g>
        </g>
        <g id="Rectangle-2">
            <use fill="black" fill-opacity="1" filter="url(#filter-13)" xlink:href="#path-12"></use>
            <use fill="#4F2B73" fill-rule="evenodd" xlink:href="#path-12"></use>
        </g>
        <g id="Rectangle-2">
            <use fill="black" fill-opacity="1" filter="url(#filter-15)" xlink:href="#path-14"></use>
            <use fill="#4F2B73" fill-rule="evenodd" xlink:href="#path-14"></use>
        </g>
        <g id="Rectangle-2">
            <use fill="black" fill-opacity="1" filter="url(#filter-17)" xlink:href="#path-16"></use>
            <use fill="#4F2B73" fill-rule="evenodd" xlink:href="#path-16"></use>
        </g>
        <text id="Typing-a-message-can" font-family="Avenir-Roman, Avenir" font-size="16" font-weight="normal" fill="#FFFFFF">
            <tspan x="191.26" y="5692">Typing a message can be easier and </tspan>
            <tspan x="218.66" y="5714">faster than navigating a web</tspan>
            <tspan x="197.628" y="5736">   site when using a mobile phone.</tspan>
        </text>
        <text id="Sending-a-message-us" font-family="Avenir-Roman, Avenir" font-size="16" font-weight="normal" fill="#FFFFFF">
            <tspan x="597.612" y="5692">Sending a message uses very little </tspan>
            <tspan x="567.516" y="5714">bandwidth compared to loading a full web </tspan>
            <tspan x="560.116" y="5736">site. This makes a difference in environments </tspan>
            <tspan x="559.756" y="5758">where there is a poor internet connection, or </tspan>
            <tspan x="626.98" y="5780">data transfer is expensive.</tspan>
        </text>
        <text id="Adding-a-bot-to-your" font-family="Avenir-Roman, Avenir" font-size="16" font-weight="normal" fill="#FFFFFF">
            <tspan x="969.412" y="5692">Adding a bot to your messaging app does </tspan>
            <tspan x="979.9" y="5714">not take up extra space on your phone, </tspan>
            <tspan x="972.972" y="5736">compared to adding a purpose built app.</tspan>
        </text>
        <rect id="Rectangle-2" fill="#FFFFFF" x="330" y="6896" width="380" height="301" rx="8"></rect>
        <rect id="Rectangle-2" fill="#FFFFFF" x="730" y="6896" width="380" height="301" rx="8"></rect>
        <text id="you-need-to-be-able" font-family="Avenir-Roman, Avenir" font-size="16" font-weight="normal" fill="#8B8B8B">
            <tspan x="370.292" y="7094">you need to be able to think through how</tspan>
            <tspan x="365.732" y="7116">   a user will interact with your bot and how </tspan>
            <tspan x="398.036" y="7138">you can make this an easy and fun </tspan>
            <tspan x="382.492" y="7160">experience, and test this on real users.</tspan>
        </text>
        <text id="User-Experience-Desi" font-family="Avenir-Medium, Avenir" font-size="23" font-weight="400" fill="#181818">
            <tspan x="404.3975" y="7050">User Experience Design</tspan>
        </text>
    </g>
</svg>
