<?xml version="1.0" encoding="UTF-8"?>
<svg version="1.1" xmlns="http://www.w3.org/2000/svg" xmlns:xlink="http://www.w3.org/1999/xlink" style="background: #FFFFFF;">
    <!-- Generator: Sketch 49.1 (51147) - http://www.bohemiancoding.com/sketch -->
    <title>chatbottech.io background</title>
    <defs>
        <linearGradient x1="50%" y1="100%" x2="-27.1635812%" y2="-118.095962%" id="linearGradient-3">
            <stop stop-color="#4F2B73" offset="0%"></stop>
            <stop stop-color="#C996FF" offset="100%"></stop>
        </linearGradient>
        <rect id="path-4" x="0" y="0" width="100%" height="100%"></rect>
    </defs>
    <g id="CHATBOTTECH-LANDING-PAGE" stroke="none" stroke-width="1" fill="none" fill-rule="evenodd">
      <g transform="translate(0.000000, 8678.000000)">
            <ellipse fill="#FFFFFF" opacity="0.0444406703" cx="1249.5" cy="-329" rx="529.5" ry="515"></ellipse>
            <ellipse fill="#FFFFFF" opacity="0.0444406703" cx="497.5" cy="241" rx="566.5" ry="551"></ellipse>
      </g>
      <path d="M-122,8367.16905 C103.306663,8237.20175 352.231108,8208.6872 624.773336,8281.62541 C1033.58668,8391.03273 1577.74601,8072.26731 1624.582,7950.31056 C1655.806,7869.00606 1655.806,8111.51833 1624.582,8677.84737 L-109.097563,8677.84737 L-122,8367.16905 Z" fill="#4F2B73" opacity="0.0444406703"></path>
      <g>
        <use id="Mask" fill="url(#linearGradient-3)" xlink:href="#path-4"></use>
	<svg viewBox="240 0 1440 1000" width="100%" preserveAspectRatio="none">
          <path d="M150,848.169052 C375.306663,718.201746 624.231108,689.6872 896.773336,762.625413 C1305.58668,872.032734 1849.74601,553.267312 1896.582,431.310561 C1927.806,350.00606 1927.806,592.518331 1896.582,1158.84737 L162.902437,1158.84737 L150,848.169052 Z" fill="#FFFFFF" opacity="0.0444406703"></path>
          <ellipse fill="#FFFFFF" opacity="0.0444406703" cx="1428.5" cy="-285" rx="529.5" ry="515"></ellipse>
	</svg>
      </g>
    </g>
</svg>
