<?xml version="1.0" encoding="UTF-8" standalone="no"?>
<svg
   xmlns:dc="http://purl.org/dc/elements/1.1/"
   xmlns:cc="http://creativecommons.org/ns#"
   xmlns:rdf="http://www.w3.org/1999/02/22-rdf-syntax-ns#"
   xmlns:svg="http://www.w3.org/2000/svg"
   xmlns="http://www.w3.org/2000/svg"
   version="1.1"
   id="svg6371"
   viewBox="0 0 123 110.68598"
   height="31.238043mm"
   width="34.713333mm">
  <defs
     id="defs6373" />
  <metadata
     id="metadata6376">
    <rdf:RDF>
      <cc:Work
         rdf:about="">
        <dc:format>image/svg+xml</dc:format>
        <dc:type
           rdf:resource="http://purl.org/dc/dcmitype/StillImage" />
        <dc:title></dc:title>
      </cc:Work>
    </rdf:RDF>
  </metadata>
  <g
     transform="translate(2641.5,1017.2665)"
     id="layer1">
    <g
       transform="translate(-2641.5,-1017.4234)"
       id="student-(2)"
       style="fill:#4f2b73;fill-rule:nonzero">
      <path
         id="path986"
         d="m 61.5,78.227851 c -3.327486,0 -6.034447,2.707246 -6.034447,6.035084 0,3.327838 2.706961,6.035084 6.034447,6.035084 3.327486,0 6.034447,-2.707246 6.034447,-6.035084 0,-3.327838 -2.706961,-6.035084 -6.034447,-6.035084 z m 0,8.218084 c -1.203574,0 -2.18277,-0.979299 -2.18277,-2.183 0,-1.203701 0.979196,-2.183 2.18277,-2.183 1.203574,0 2.182769,0.979299 2.182769,2.183 0,1.203701 -0.979195,2.183 -2.182769,2.183 z" />
      <path
         id="path988"
         d="m 119.0198,98.772942 -24.731892,0 0,-27.665189 c 0,-4.108201 -2.45015,-7.783695 -6.24201,-9.363643 L 74.818353,56.232071 c 4.205784,-0.816642 8.085569,-2.025629 11.327051,-3.540707 1.650891,-0.771474 2.709123,-2.437676 2.69591,-4.244909 C 88.728885,33.227201 87.06358,22.546214 83.600842,14.832675 79.229297,5.0947078 71.793562,0.15688961 61.5,0.15688961 c -10.293563,0 -17.729297,4.93781819 -22.100842,14.67578539 -3.462738,7.713539 -5.128043,18.394767 -5.240473,33.61378 -0.01345,1.806993 1.04478,3.473194 2.695911,4.244909 3.241482,1.514837 7.121267,2.723824 11.32705,3.540707 L 34.954342,61.74411 c -3.79186,1.580189 -6.24201,5.255442 -6.24201,9.363643 l 0,27.665189 -24.7321289,0 C 1.7854219,98.772942 0,100.55855 0,102.75333 l 0,4.10892 c 0,2.19501 1.7854219,3.98062 3.9802031,3.98062 l 115.0395969,0 c 2.19478,0 3.9802,-1.78561 3.9802,-3.98062 l 0,-4.10892 c 0,-2.19478 -1.78542,-3.980388 -3.9802,-3.980388 z m -41.583612,-37.27678 9.128185,3.803792 c 2.352135,0.98002 3.871857,3.259604 3.871857,5.807799 l 0,27.665189 -4.823185,0 c 0.263777,-0.677533 0.41008,-1.413208 0.41008,-2.183 l 0,-24.654013 c 0,-3.327838 -2.706961,-6.035085 -6.034447,-6.035085 l -6.543504,0 c 1.391918,-1.362032 2.726179,-2.832662 3.991014,-4.404682 z m -23.087485,-7.365643 0,-1.164539 2.689424,1.494176 c 1.396963,0.776039 2.929418,1.164058 4.461633,1.164058 1.532215,0 3.06491,-0.388019 4.461633,-1.164058 l 2.689183,-1.494176 0,1.164539 c 0,2.250754 1.34243,4.26413 3.419496,5.129786 l 1.651131,0.688104 c -1.888963,2.239461 -3.928072,4.233617 -6.076969,5.952675 l -12.289189,0 C 53.205908,64.182026 51.166799,62.18787 49.278076,59.948409 l 1.651131,-0.688104 c 2.077307,-0.865656 3.419496,-2.879272 3.419496,-5.129786 z m -4.894775,-8.291363 c -1.544707,-0.858208 -2.56234,-2.421578 -2.722576,-4.181721 L 45.435527,27.402104 c 4.910871,-0.56389 18.002924,-2.369682 26.081285,-6.319312 1.011628,1.793299 2.912122,4.337169 6.089702,5.850805 l -1.338346,14.723838 c -0.159996,1.760143 -1.177629,3.323513 -2.722336,4.181721 l -9.454664,5.253279 c -1.622543,0.901455 -3.559793,0.901455 -5.182576,0 l -9.454664,-5.253279 z m 30.53451,23.914013 c 1.203574,0 2.182769,0.979298 2.182769,2.183 l 0,24.654013 c 0,1.203701 -0.979195,2.183 -2.182769,2.183 l -36.976876,0 c -1.203574,0 -2.182769,-0.979299 -2.182769,-2.183 l 0,-24.654253 c 0,-1.203702 0.979195,-2.183 2.182769,-2.183 l 36.976876,0 0,2.4e-4 z M 38.484586,49.20111 C 38.194143,49.065604 38.007961,48.780416 38.010123,48.475045 38.118469,33.80863 39.676148,23.619695 42.912586,16.410461 46.659041,8.0657597 52.738893,4.0092143 61.5,4.0092143 c 8.761107,0 14.840959,4.0565454 18.587174,12.4014867 3.236437,7.209474 4.794117,17.397929 4.902463,32.064585 0.0024,0.30537 -0.18402,0.590318 -0.474703,0.726305 -3.357276,1.568896 -7.499877,2.785812 -12.0122,3.53374 l 0,-1.909824 2.913803,-1.618871 c 2.659875,-1.477837 4.412385,-4.169707 4.687934,-7.200344 l 1.467832,-16.145935 c 0.08096,-0.890162 -0.46125,-1.719058 -1.309037,-2.001604 -4.427039,-1.475915 -6.030844,-6.006974 -6.043577,-6.044214 -0.18498,-0.554279 -0.610916,-0.994675 -1.15889,-1.197214 -0.547975,-0.202539 -1.15817,-0.145838 -1.659059,0.154967 -8.591502,5.155494 -28.034871,6.978104 -28.230181,6.995883 -1.059194,0.09659 -1.839956,1.033117 -1.743622,2.092422 l 1.467832,16.145935 c 0.275549,3.030637 2.027819,5.722267 4.687934,7.200345 l 2.913563,1.61863 0,1.909824 C 45.984463,51.986922 41.841861,50.770006 38.484586,49.20111 Z M 32.56401,71.107753 c 0,-2.548195 1.519722,-4.827779 3.871617,-5.807799 l 9.128185,-3.803792 c 1.264834,1.57226 2.599096,3.04265 3.991014,4.404922 l -6.543264,0 c -3.327486,0 -6.034447,2.707247 -6.034447,6.035085 l 0,24.654013 c 0,0.769552 0.146303,1.505467 0.41008,2.183 l -4.823185,0 0,-27.665429 z m 86.58431,35.754737 c 0,0.0709 -0.0574,0.1283 -0.12828,0.1283 l -115.0398369,0 c -0.070869,0 -0.1282851,-0.0574 -0.1282851,-0.1283 l 0,-4.10893 c 0,-0.0709 0.057416,-0.12829 0.1282851,-0.12829 l 115.0395969,0 c 0.0709,0 0.12828,0.0574 0.12828,0.12829 l 0,4.10893 2.4e-4,0 z" />
    </g>
  </g>
</svg>
