<?xml version="1.0" encoding="UTF-8" standalone="no"?>
<svg
   xmlns:dc="http://purl.org/dc/elements/1.1/"
   xmlns:cc="http://creativecommons.org/ns#"
   xmlns:rdf="http://www.w3.org/1999/02/22-rdf-syntax-ns#"
   xmlns:svg="http://www.w3.org/2000/svg"
   xmlns="http://www.w3.org/2000/svg"
   version="1.1"
   id="svg5161"
   viewBox="0 0 75.627413 97.820357"
   height="27.607079mm"
   width="21.343737mm">
  <defs
     id="defs5163" />
  <metadata
     id="metadata5166">
    <rdf:RDF>
      <cc:Work
         rdf:about="">
        <dc:format>image/svg+xml</dc:format>
        <dc:type
           rdf:resource="http://purl.org/dc/dcmitype/StillImage" />
        <dc:title></dc:title>
      </cc:Work>
    </rdf:RDF>
  </metadata>
  <g
     transform="translate(612.8137,-483.45203)"
     id="layer1">
    <g
       transform="translate(-613.01009,483.45203)"
       id="piggy-bank-(1)"
       style="fill:#4f2b73;fill-rule:nonzero">
      <path
         id="Shape"
         d="m 60.2638,84.627291 0.5,-0.439104 c 0.08,-0.05988 0.14,-0.119755 0.2,-0.199592 0.26,-0.299389 6.1,-7.025662 8.32,-12.195112 l 1.06,0 c 3.02,0 5.48,-2.45499 5.48,-5.468839 l 0,-8.642363 c 0,-3.013849 -2.46,-5.468839 -5.48,-5.468839 l -1.18,0 c -1.82,-4.730346 -4.92,-9.001629 -9.04,-12.474542 -0.6,-2.135641 -0.16,-4.410998 1.34,-6.78615 0.84,-1.337271 0.84,-3.01385 -0.02,-4.351121 -0.86,-1.337271 -2.36,-2.055804 -3.94,-1.856212 -5.78,0.718534 -9.24,3.333198 -11.26,5.768229 -1.9,-0.518941 -3.86,-0.918127 -5.84,-1.137679 -1.08,-0.119755 -2.08,0.638697 -2.2,1.736457 -0.12,1.0778 0.64,2.075763 1.74,2.195519 2.2,0.25947 4.38,0.738493 6.46,1.397149 0.84,0.25947 1.74,-0.05988 2.24,-0.778412 1.36,-2.015886 4.1,-4.570672 9.34,-5.229328 0.04,0 0.08,0 0.12,0.05988 0.04,0.05988 0.02,0.0998 0,0.119756 -2.08,3.313238 -2.7,6.766191 -1.78,9.999592 0.02,0.578819 0.28,1.117719 0.74,1.476986 4.22,3.393075 7.28,7.704277 8.84,12.474542 0.26,0.81833 1.04,1.35723 1.88,1.35723 l 2.56,0 c 0.84,0 1.52,0.678615 1.52,1.516904 l 0,8.642363 c 0,0.838289 -0.68,1.516904 -1.52,1.516904 l -2.42,0 c -0.86,0 -1.64,0.55886 -1.9,1.397149 -1.12,3.652546 -6.04,9.839918 -7.96,12.055397 l -0.44,0.379226 c -4.12,3.712424 -4.54,8.103462 -4.56,9.420774 l 0,2.774338 -11.42,0 0,-2.674542 c 0,-0.558859 -0.24,-1.097759 -0.66,-1.476986 -0.42,-0.379226 -0.98,-0.558859 -1.54,-0.498981 -2.92,0.299389 -5.86,0.25947 -8.7,-0.119756 -0.56,-0.07984 -1.14,0.0998 -1.56,0.479023 -0.44,0.379226 -0.68,0.918126 -0.68,1.496945 l 0,2.774338 -11.42,0 0,-0.778412 c 0,-0.01996 0,-0.05988 0,-0.07984 -0.1,-2.095723 -0.76,-7.404888 -4.92,-11.676171 -1.96,-2.015886 -3.72,-4.690427 -5.24,-7.923829 -0.02,-0.01996 -0.02,-0.03992 -0.04,-0.07984 -0.9,-1.716497 -1.58,-3.53279 -2.04,-5.44888 l -0.02,-0.07984 c 0,-0.01996 -0.02,-0.03992 -0.02,-0.05988 -0.72,-2.395113 -0.64,-5.408962 -0.64,-5.428921 0,-0.01996 0,-0.03992 0,-0.05988 0,-1.317311 0.12,-2.654582 0.32,-3.951935 0.18,-1.0778 -0.54,-2.095723 -1.62,-2.275356 -1.08,-0.179633 -2.1,0.5389 -2.28,1.6167 -0.26,1.496945 -0.38,3.033809 -0.38,4.570673 -0.02,0.399185 -0.06,3.752342 0.8,6.646435 0.52,2.135642 1.32,4.231365 2.34,6.227292 1.68,3.632586 3.7,6.646436 5.96,8.98167 3.18,3.273319 3.72,7.384929 3.8,9.061507 l 0,0.81833 c 0,0.07984 0,0.139715 0.02,0.25947 0.14,2.015886 1.84,3.612628 3.86,3.612628 l 11.58,0 c 2.14,0 3.88,-1.736457 3.88,-3.872098 l 0,-0.658656 c 1.74,0.139715 3.46,0.159674 5.22,0.07984 l 0,0.578819 c 0,2.135641 1.74,3.872098 3.88,3.872098 l 11.58,0 c 2.14,0 3.88,-1.736457 3.88,-3.872098 l 0,-2.814257 c 0.04,-0.618737 0.26,-3.81222 3.26,-6.506721 z" />
      <path
         id="path4393"
         d="m 0.3638,38.202037 c 0,8.96171 7.3,16.266802 16.3,16.266802 8.98,0 16.3,-7.285132 16.3,-16.266802 0,-8.961711 -7.3,-16.266803 -16.3,-16.266803 -8.98,0 -16.3,7.285133 -16.3,16.266803 z m 28.64,0 c 0,6.78615 -5.54,12.314867 -12.34,12.314867 -6.8,0 -12.34,-5.528717 -12.34,-12.314867 0,-6.786151 5.54,-12.314868 12.34,-12.314868 6.8,0 12.34,5.528717 12.34,12.314868 z" />
      <path
         id="path4395"
         d="M 46.6438,11.336864 C 46.6438,5.089613 41.5438,0 35.2838,0 c -6.26,0 -11.36,5.089613 -11.36,11.336864 0,6.24725 5.1,11.336863 11.36,11.336863 6.26,0 11.36,-5.089613 11.36,-11.336863 z m -18.78,0 c 0,-4.0716909 3.32,-7.3849292 7.4,-7.3849292 4.08,0 7.4,3.3132383 7.4,7.3849292 0,4.07169 -3.32,7.384928 -7.4,7.384928 -4.08,0 -7.4,-3.313238 -7.4,-7.384928 z" />
    </g>
  </g>
</svg>
